<svg xmlns="http://www.w3.org/2000/svg" viewBox="0 0 391.44 317.66"><defs><style>.cls-1{fill:#fff;}</style></defs><title>CARTANA ( SVG )</title><g id="Calque_2" data-name="Calque 2"><path class="cls-1" d="M28.61,212.08V200.85h4.51a3.39,3.39,0,1,1,0,6.77H30v4.46Zm6.58-7.84A2.09,2.09,0,0,0,33,202.1H30v4.27h3A2.08,2.08,0,0,0,35.19,204.24Z"/><path class="cls-1" d="M46.05,212.08l-1-2.49H39.46l-1,2.49h-1.6l4.51-11.23h1.74l4.52,11.23Zm-3.79-9.78-2.39,6h4.76Z"/><path class="cls-1" d="M56.45,212.08l-2.86-4.46H51.35v4.46H50V200.85h4.51A3.27,3.27,0,0,1,58,204.24a3.1,3.1,0,0,1-2.91,3.26l3,4.58Zm.08-7.84a2.08,2.08,0,0,0-2.23-2.14H51.35v4.29H54.3A2.09,2.09,0,0,0,56.53,204.24Z"/><path class="cls-1" d="M61,212.08V200.85h7.35v1.25H62.43v3.62h5.84V207H62.43v5.12Z"/><path class="cls-1" d="M71.13,207.72v-6.87h1.4v6.84c0,2.05,1.11,3.34,3.18,3.34s3.18-1.29,3.18-3.34v-6.84h1.4v6.85c0,2.8-1.54,4.58-4.58,4.58S71.13,210.48,71.13,207.72Z"/><path class="cls-1" d="M93.35,212.08v-9.24l-3.82,9.24H89l-3.81-9.24v9.24H83.76V200.85h2l3.48,8.45,3.5-8.45h2v11.23Z"/><path class="cls-1" d="M97.55,210.5l.82-1.06A4.75,4.75,0,0,0,101.9,211c2,0,2.65-1.07,2.65-1.93,0-2.9-6.65-1.3-6.65-5.3,0-1.85,1.65-3.12,3.85-3.12a5.29,5.29,0,0,1,4,1.57l-.84,1a4.28,4.28,0,0,0-3.25-1.35c-1.35,0-2.3.72-2.3,1.78,0,2.53,6.64,1.08,6.64,5.27,0,1.63-1.11,3.3-4.14,3.3A5.54,5.54,0,0,1,97.55,210.5Z"/><path class="cls-1" d="M121.36,212.08c-.33-.29-.77-.71-1.23-1.18a4.41,4.41,0,0,1-3.23,1.38c-1.93,0-3.5-1-3.5-3.13,0-1.75,1.18-2.64,2.48-3.33a5.24,5.24,0,0,1-.86-2.53,2.67,2.67,0,0,1,2.83-2.61,2.24,2.24,0,0,1,2.54,2.21c0,1.68-1.43,2.42-2.86,3.16a20.14,20.14,0,0,0,1.29,1.6c.46.54.89,1,1.33,1.5a10.7,10.7,0,0,0,1.21-2.56l1.1.47a16,16,0,0,1-1.53,2.9c.65.69,1.36,1.36,2.18,2.12Zm-2-2c-.64-.68-1.23-1.32-1.55-1.7-.47-.54-1-1.15-1.42-1.79a2.81,2.81,0,0,0-1.64,2.43,2.13,2.13,0,0,0,2.25,2.17A3.36,3.36,0,0,0,119.38,210.13ZM117,205.25c1.2-.59,2.23-1.2,2.23-2.31a1.21,1.21,0,0,0-1.33-1.26,1.57,1.57,0,0,0-1.57,1.63A4.22,4.22,0,0,0,117,205.25Z"/><path class="cls-1" d="M130.47,206.47a5.61,5.61,0,0,1,5.77-5.8,5,5,0,0,1,4.26,2.22l-1.18.65a3.78,3.78,0,0,0-3.08-1.63,4.57,4.57,0,0,0,0,9.12,3.73,3.73,0,0,0,3.08-1.63l1.2.66a5.08,5.08,0,0,1-4.28,2.22A5.62,5.62,0,0,1,130.47,206.47Z"/><path class="cls-1" d="M142.69,206.47a5.58,5.58,0,1,1,5.58,5.81A5.47,5.47,0,0,1,142.69,206.47Zm9.7,0c0-2.62-1.62-4.56-4.12-4.56s-4.13,1.94-4.13,4.56,1.6,4.56,4.13,4.56S152.39,209.08,152.39,206.47Z"/><path class="cls-1" d="M156.2,210.5l.82-1.06a4.75,4.75,0,0,0,3.53,1.59c2,0,2.65-1.07,2.65-1.93,0-2.9-6.65-1.3-6.65-5.3,0-1.85,1.65-3.12,3.85-3.12a5.29,5.29,0,0,1,4,1.57l-.84,1a4.28,4.28,0,0,0-3.25-1.35c-1.34,0-2.3.72-2.3,1.78,0,2.53,6.64,1.08,6.64,5.27,0,1.63-1.11,3.3-4.14,3.3A5.54,5.54,0,0,1,156.2,210.5Z"/><path class="cls-1" d="M177.17,212.08v-9.24l-3.82,9.24h-.57L169,202.84v9.24h-1.4V200.85h2l3.48,8.45,3.5-8.45h2v11.23Z"/><path class="cls-1" d="M182,212.08V200.85h7.35v1.25h-6v3.62h5.84V207h-5.84v3.87h6v1.25Z"/><path class="cls-1" d="M195.23,212.08v-10h-3.55v-1.25h8.52v1.25h-3.57v10Z"/><path class="cls-1" d="M202.89,212.08V200.85h1.4v11.23Z"/><path class="cls-1" d="M207.3,206.47a5.58,5.58,0,1,1,11.15,0,5.93,5.93,0,0,1-1.55,4.14l1.07,1.15-1,.84-1.1-1.16a5.64,5.64,0,0,1-8.6-5Zm7.71,4-1.6-1.73,1-.83,1.58,1.72a4.92,4.92,0,0,0,1-3.15c0-2.62-1.62-4.56-4.12-4.56s-4.13,1.94-4.13,4.56,1.6,4.56,4.13,4.56A4,4,0,0,0,215,210.46Z"/><path class="cls-1" d="M221.48,207.72v-6.87h1.4v6.84c0,2.05,1.11,3.34,3.18,3.34s3.18-1.29,3.18-3.34v-6.84h1.39v6.85c0,2.8-1.53,4.58-4.57,4.58S221.48,210.48,221.48,207.72Z"/><path class="cls-1" d="M234.1,212.08V200.85h7.36v1.25h-6v3.62h5.84V207H235.5v3.87h6v1.25Z"/><path class="cls-1" d="M243.85,210.5l.83-1.06a4.75,4.75,0,0,0,3.53,1.59c2,0,2.64-1.07,2.64-1.93,0-2.9-6.64-1.3-6.64-5.3,0-1.85,1.65-3.12,3.85-3.12a5.29,5.29,0,0,1,4,1.57l-.84,1a4.28,4.28,0,0,0-3.25-1.35c-1.35,0-2.31.72-2.31,1.78,0,2.53,6.65,1.08,6.65,5.27,0,1.63-1.11,3.3-4.14,3.3A5.58,5.58,0,0,1,243.85,210.5Z"/><path class="cls-1" d="M260.42,212.08V200.85h3.83a5.62,5.62,0,1,1,0,11.23Zm8.14-5.61a4.1,4.1,0,0,0-4.31-4.37h-2.44v8.73h2.44A4.13,4.13,0,0,0,268.56,206.47Z"/><path class="cls-1" d="M273,212.08V200.85h7.36v1.25h-6v3.62h5.84V207h-5.84v3.87h6v1.25Z"/><path class="cls-1" d="M283.46,212.08V200.85H288a3.39,3.39,0,1,1,0,6.77h-3.11v4.46Zm6.58-7.84a2.09,2.09,0,0,0-2.24-2.14h-2.94v4.27h2.94A2.08,2.08,0,0,0,290,204.24Z"/><path class="cls-1" d="M294.19,207.72v-6.87h1.39v6.84c0,2.05,1.11,3.34,3.18,3.34s3.19-1.29,3.19-3.34v-6.84h1.39v6.85c0,2.8-1.53,4.58-4.58,4.58S294.19,210.48,294.19,207.72Z"/><path class="cls-1" d="M306.81,212.08V200.85h1.4v11.23Z"/><path class="cls-1" d="M311,210.5l.83-1.06a4.75,4.75,0,0,0,3.53,1.59c2,0,2.65-1.07,2.65-1.93,0-2.9-6.65-1.3-6.65-5.3,0-1.85,1.65-3.12,3.85-3.12a5.29,5.29,0,0,1,4,1.57l-.84,1a4.28,4.28,0,0,0-3.25-1.35c-1.35,0-2.31.72-2.31,1.78,0,2.53,6.65,1.08,6.65,5.27,0,1.63-1.11,3.3-4.14,3.3A5.58,5.58,0,0,1,311,210.5Z"/><path class="cls-1" d="M329.25,212.08V202.7l-1.8,1.91-.84-.86,2.81-2.9h1.23v11.23Z"/><path class="cls-1" d="M334.22,210.92l.71-1a2.87,2.87,0,0,0,2.4,1.15c2.28,0,3.17-2.27,3.17-4.4a3.39,3.39,0,0,0,0-.45,4,4,0,0,1-3.16,1.75,3.41,3.41,0,0,1-3.69-3.58,3.69,3.69,0,0,1,3.92-3.67c3.15,0,4.34,2.74,4.34,5.8s-1.41,5.79-4.56,5.79A3.92,3.92,0,0,1,334.22,210.92Zm6.21-5.88c-.12-1.39-.86-3.13-2.81-3.13a2.45,2.45,0,0,0-2.58,2.37,2.33,2.33,0,0,0,2.59,2.43A3.35,3.35,0,0,0,340.43,205Z"/><path class="cls-1" d="M345,210.92l.71-1a2.87,2.87,0,0,0,2.4,1.15c2.28,0,3.17-2.27,3.17-4.4a3.39,3.39,0,0,0,0-.45,4,4,0,0,1-3.16,1.75,3.41,3.41,0,0,1-3.69-3.58,3.69,3.69,0,0,1,3.92-3.67c3.15,0,4.35,2.74,4.35,5.8s-1.42,5.79-4.57,5.79A3.92,3.92,0,0,1,345,210.92Zm6.21-5.88c-.12-1.39-.86-3.13-2.81-3.13a2.45,2.45,0,0,0-2.58,2.37,2.33,2.33,0,0,0,2.6,2.43A3.34,3.34,0,0,0,351.22,205Z"/><path class="cls-1" d="M354.88,210.43l.82-.88a3.89,3.89,0,0,0,3.13,1.48c1.63,0,2.63-.8,2.63-2.1s-1.15-2-2.8-2H357.5v-1.28c.19,0,.71,0,1.16,0,1.41,0,2.61-.56,2.61-1.85s-1.14-1.92-2.51-1.92a3.81,3.81,0,0,0-3,1.36l-.77-.87a4.83,4.83,0,0,1,3.83-1.74c2.16,0,3.81,1.1,3.81,3a2.74,2.74,0,0,1-2.43,2.61,2.82,2.82,0,0,1,2.6,2.76c0,1.87-1.5,3.23-4,3.23A4.7,4.7,0,0,1,354.88,210.43Z"/><path class="cls-1" d="M90.83,155.65l3.35,2.42Q86.38,175,70,175q-12.23,0-20.55-9.88t-8.34-24.3q0-14.64,8.62-24.84t20.93-10.22q14,0,22.3,13.81l-3.47,2.51q-6.5-11.88-17.29-11.87-9.06,0-14.7,8.49t-5.64,22.16q0,13.42,5.51,21.56t14.55,8.13q12.63,0,19-14.87"/><path class="cls-1" d="M92,173.28l23.17-68.22,24.27,68.22H128.71l-6.13-17.14H102.52l-5.84,17.14Zm12.13-21.77H121L112.36,127Z"/><path class="cls-1" d="M140.89,173.28v-65.9h20.22q20.31,0,20.31,18.15,0,15.3-15.15,16.75l15.15,31H169.78l-15.33-33.56,2.09.05q14.13,0,14.14-14.05,0-15.06-15.62-15.06c-1.24,0-2.53.06-3.83.19v62.43Z"/><polygon class="cls-1" points="191.76 173.28 191.76 112.01 180.21 112.01 180.21 107.38 213.79 107.38 213.79 112.01 202.1 112.01 202.1 173.28 191.76 173.28"/><path class="cls-1" d="M209.37,173.28l23.17-68.22,24.27,68.22H246.06l-6.12-17.14H219.88L214,173.28Zm12.14-21.77h16.87L229.72,127Z"/><polygon class="cls-1" points="258.25 173.28 258.25 107.38 267.52 107.38 297.31 153.09 297.31 107.38 301.93 107.38 301.93 173.28 297.31 173.28 262.86 120.41 262.86 173.28 258.25 173.28"/><path class="cls-1" d="M303.4,173.28l23.16-68.22,24.28,68.22H340.09L334,156.14H313.9l-5.85,17.14Zm12.14-21.77h16.87L323.75,127Z"/><path class="cls-1" d="M349.25,106.7a5.51,5.51,0,0,1-.09,7.83,5.36,5.36,0,0,1-3.89,1.58,5.53,5.53,0,0,1,.07-11,5.53,5.53,0,0,1,3.91,1.64m-7.36.43a4.91,4.91,0,0,0-1.42,3.47,4.8,4.8,0,0,0,1.45,3.47,4.82,4.82,0,0,0,6.81,0,4.9,4.9,0,0,0,0-6.95,4.83,4.83,0,0,0-3.4-1.44,4.89,4.89,0,0,0-3.45,1.45m3.59.22c1.58,0,2.49.63,2.49,1.58s-.71,1.29-2.24,1.56a2.09,2.09,0,0,1,1.66,1.66c.17.63.05,1.19.56,1.19.33,0,.52-.35.52-1.06h.34v.1c0,.93-.43,1.4-1.25,1.4a1,1,0,0,1-1-.52,8.63,8.63,0,0,1-.25-1.63c-.2-.73-.73-1-1.62-1h-.26v1.94c0,.56.24.74,1,.77v.33h-3v-.33c.75,0,1-.21,1-.77v-4.08c0-.58-.23-.75-1-.78v-.33h3.09m-.52,2.94c1.19,0,1.84-.51,1.84-1.36s-.55-1.28-1.55-1.28c-.53,0-.82.19-.82.57v2c.26,0,.43,0,.53,0"/></g></svg>