<svg id="logo" xmlns="http://www.w3.org/2000/svg" viewBox="0 0 339 339"><defs><style>.cls-1{fill:#fff;}.cls-2{fill:#45ae54;}</style></defs><title>logo</title><rect class="cls-1" x="2.5" y="2.5" width="334" height="334" rx="12"/><path id="bordure" class="cls-2" d="M324.5,339H14.5A14.5,14.5,0,0,1,0,324.5V14.5A14.5,14.5,0,0,1,14.5,0h310A14.5,14.5,0,0,1,339,14.5v310A14.5,14.5,0,0,1,324.5,339ZM5,14.5v310a9.5,9.5,0,0,0,9.5,9.5h310a9.5,9.5,0,0,0,9.5-9.5V14.5A9.5,9.5,0,0,0,324.5,5H14.5A9.5,9.5,0,0,0,5,14.5Z"/><g id="cartana-fr"><path class="cls-2" d="M311.51,312.52c-.87-2-1.86-3.87-2.74-5.82C304,296,299.19,285.24,294.3,274.56c-.61-1.32-.8-3.51-2.77-3.43-1.7.06-1.88,2.07-2.48,3.33q-8.74,18.35-17.37,36.76c-.54,1.16-2.08,2.64.18,3.66,1.84.83,3.51.74,4.53-1.42,1.55-3.27,3.21-6.48,4.72-9.76a3.92,3.92,0,0,1,4-2.53q6.11,0,12.21,0a4.47,4.47,0,0,1,4.54,2.86c1.33,3,2.83,5.92,4.12,8.93.73,1.7,1.84,2.5,3.51,2.36C311.67,315.33,312.34,314.4,311.51,312.52Zm-17.44-16.88c-.68,0-1.36,0-2,0-7-.05-7.18-.3-3.84-6.6.74-1.39,1.3-2.88,2-4.32.28-.62.58-1.34,1.34-1.39,1-.08,1.26.81,1.59,1.51q1.67,3.54,3.28,7.09C297.87,295.24,297.68,295.54,294.07,295.64Z"/><path class="cls-2" d="M234.05,285q.09,11.31.18,22.61c0,1.7,0,3.39,0,5.09s-.95,2.4-2.58,2.43-2.43-.92-2.44-2.53q0-19.71-.07-39.41c0-.91.06-2,1.14-2.22,1.24-.31,1.73.83,2.37,1.58Q244,286,255.46,299.41c.67.79,1.06,2.45,2.43,1.82,1.17-.53.63-2,.63-3.11,0-7.7-.12-15.39-.08-23.09,0-1.37-.4-3.07,1.12-4,2.13-1.36,4.25.14,4.24,3.15-.06,11.2-.22,22.4-.34,33.6a8.83,8.83,0,0,1,0,1.36c-.3,1.79,1.08,4.47-1,5.17-1.54.51-2.67-2-3.83-3.35q-11.49-13.14-22.95-26.29Z"/><path class="cls-2" d="M222,312.07q-8.74-19.65-17.49-39.31c-.41-.93-.89-1.94-2.11-1.95s-1.48.95-1.87,1.75Q191,292,181.46,311.45c-.55,1.12-1.32,2.63.18,3.25s3.91,1.11,4.55-.7c1.14-3.28,4.05-5.42,5-8.72s3.4-4.57,7.4-4.47a34.36,34.36,0,0,0,7.71.06c3-.22,5.16.52,6.39,3.68a80.2,80.2,0,0,0,4.59,9.06,3,3,0,0,0,4.12,1.3C222.8,314.35,222.52,313.22,222,312.07ZM206,295c-1.24.07-2.49,0-3.73,0-6.17,0-6.16,0-3.51-5.6.73-1.54,1.39-3.1,2.1-4.64.33-.7.42-1.69,1.33-1.82s1.26.85,1.58,1.52c1.29,2.64,2.5,5.32,3.73,8C208.25,294,207.71,294.85,206,295Z"/><path class="cls-2" d="M167,270.19c3.05,0,6.11,0,9.16-.08,1.94,0,2.89.8,2.88,2.86s-1.14,2.4-2.8,2.57c-6.67.7-6.59.73-6.64,7.45-.07,9.61.28,19.22-.18,28.83-.11,2.16-.82,3.16-2.83,3.37-2.49.26-2.42-1.66-2.43-3.17-.09-10.51-.06-21-.1-31.54,0-4.74-.07-4.74-4.65-4.81-.68,0-1.36,0-2-.09-1.63-.21-2.77-.91-2.74-2.8s1.18-2.56,2.86-2.58c3.17-.05,6.33-.06,9.5-.08Z"/><path class="cls-2" d="M140,298.78c-2.78-3.82-2.75-3.86,1.94-5.31,3.54-1.1,7.1-2,7.77-8.09,1-8.74-5.82-15.86-14.61-15.89-2.92,0-5.85.12-8.77.05s-4,1.3-3.88,4.13c.16,6.11.13,12.22.18,18.33h-.34c0,6.33.13,12.66.13,19,0,1.9.32,3.46,2.6,3.55,4.07.16,3.31-4.18,2.26-8.81a13.64,13.64,0,0,1,.78-7.32c.31-.92-.51-2.77,1-3.21,1.2-.33,1.69.84,2.3,1.64,3.87,5.15,7.77,10.28,11.64,15.42a4.63,4.63,0,0,0,4,2.13c1.05-.05,2.4.77,3-.65.48-1.07-.41-1.91-1-2.72C146,306.94,143,302.88,140,298.78Zm-11.52-15.57c-.05-8.1-1.53-7.32,6.88-7.32a23.68,23.68,0,0,1,5.67.77c2.56.63,3.38,2.85,3.76,5.12a5.22,5.22,0,0,1-2.47,5.51c-2.42,1.59-5.15,1.43-7.85,1.5C128.76,288.9,128.47,288.9,128.44,283.21Z"/><path class="cls-2" d="M115.43,310.78c-2.45-4.81-5-9.59-7.27-14.47-3.63-7.67-7.08-15.43-10.69-23.11-.53-1.13-.65-3-2.43-2.87s-2.19,1.79-2.81,3.1c-2.88,6-5.71,12.07-8.58,18.09q-4.52,9.5-9.08,19c-.72,1.47-1.06,2.84.52,3.88s2.89.47,4.07-.54a7.08,7.08,0,0,0,1.46-2.22c1.32-2.63,2.48-5.34,3.88-7.92.91-1.67,2-3.56,4.3-3.32,4,.41,7.92.17,11.87.19a3.89,3.89,0,0,1,4,2.46c1.38,3.09,3,6.1,4.35,9.19a3.82,3.82,0,0,0,3.88,2.58C116.21,314.69,116.82,313.5,115.43,310.78ZM97.7,294.47c-.91-.05-1.81,0-2.72,0-6.15.09-6.3-.16-3.47-5.51.8-1.5,1.39-3.09,2.12-4.62.92-2,1.9-1.69,2.74,0,1.13,2.34,2.1,4.76,3.28,7.07S100.1,294.59,97.7,294.47Z"/><path class="cls-2" d="M51.22,315.29c-17.88.11-28.9-14.13-24-31.11,2.93-10.24,15.18-17.27,27.06-15.72a23.86,23.86,0,0,1,12.89,6.34c1.33,1.18,3.22,2.71,1.27,4.84s-3.7,1-5.22-.6c-7.82-8.27-23.49-5.78-28.56,4.66-4.28,8.78-2.67,16.48,5.27,22.7,6.39,5,16.69,4.62,22.84-1,2-1.87,4.08-2.45,5.83-.27s-.54,3.77-2,4.93C61.47,314.15,57.94,315.25,51.22,315.29Z"/></g><g id="cartana-ar"><path class="cls-2" d="M219.26,229.51c-3.44-4.32-8.14-6.82-13.12-8.73-14.33-5.51-29.13-5.89-44.09-3.4-6.25,1-12.42,2.55-18.1,5.56-1.69.9-3.4.9-3.18-1.55s-.36-4.73-.17-7.1c.58-7.17.08-7.61-6.84-5.9-.22.06-.45.07-.67.14-2.36.74-2.94,2.13-1.13,3.95a4.56,4.56,0,0,1,1.44,3.61c-.15,6.21-.2,12.42-.37,18.63-.24,8.31-.64,8.52-9,7.66-3-.31-4-1.57-4-4.55.21-8.8.2-17.6.26-26.41,0-1.72.08-3.55-2.23-3.93-2.53-.41-7.64,1.37-8.06,2.73a1.43,1.43,0,0,0,.66,1.76c1.92,1.12,1.79,3,1.8,4.79,0,8.61.18,17.21.11,25.82,0,3,1.07,4.24,4.17,4.24,10.75,0,21.5.1,32.25.43,4.52.15,9-.21,13.55.05a178.57,178.57,0,0,0,17.92-.13,163.48,163.48,0,0,1,22.37.48c-1.13,1.42-2.42,1.52-3.57,1.9-6.4,2.12-13,2.83-19.7,3.39-1.3.11-2.62.34-2.58,2s1.34,1.58,2.65,1.79c3.67.59,7.24-.09,10.82-.46,10.05-1,19.57-3.59,27.27-10.65A11.69,11.69,0,0,0,219.26,229.51Zm-10.53,13.1c-1.35,0-2.71,0-4.07,0s-2.71,0-4.07,0c-18.77-.86-37.55-.2-56.32-.2-2.72,0-3.83-.84-3.82-3.7,0-5.44,3.42-9.62,9.33-12.42,13-6.14,26.62-6.87,40.4-4.74,7.39,1.14,14.77,3.32,20.74,8.45a11.51,11.51,0,0,1,3.07,4.82A5.64,5.64,0,0,1,208.73,242.61Z"/><path class="cls-2" d="M314.47,227.54c-6.29-5.13-13.7-7.74-22.22-9.8,1.84-1.1,3.12-1.09,4.2-.54,2.55,1.32,4.44.38,5.85-1.66a5.33,5.33,0,0,0,.16-6.39,5.1,5.1,0,0,0-6.28-2,3.46,3.46,0,0,1-2.94.21,5.13,5.13,0,0,0-6.76,1.13c-1.88,2.06-1.55,4.38-.33,6.61.7,1.28.18,1.74-1,1.69-4.07-.15-8.14-.37-12.2-.6a2.62,2.62,0,0,1-2.14-1.47c-1.71-2.83-4.47-1.88-6.73-1.42s-1.47,2.77-1.5,4.34q-.19,11.34-.19,22.69c0,1.5-.33,2.48-2,2.48-3.73,0-7.47,0-11.2-.14a2.86,2.86,0,0,1-3-3.29c.22-6.31.35-12.63.69-18.94.15-2.62-.66-4.3-3.38-4.4-3.73-.12-7.47,0-11.2,0-1.93,0-2.57,1.3-2.54,2.93s1.25,1.88,2.62,2c6.52.45,6.69.48,6.44,6.9-.21,5.34.61,10.65-.63,16.09-.43,1.86.37,4.09-1.5,5.73a12.85,12.85,0,0,1-6.06,2.89,33.14,33.14,0,0,0-3.33.62,1.91,1.91,0,0,0-1.42,2.37c.2.93.7,1.91,1.74,1.79,6.38-.72,13.06-.88,17.11-7.13,1.46-2.25,3.22-3,5.95-2.87,10.13.52,20.28.35,30.42.44,8,.07,16-1.39,23.95,2.11,5,2.22,10.71-2.12,13.72-8.92C320.51,237,318.43,230.77,314.47,227.54Zm-9,15c-5.08.1-10.44.09-15.44.13h0c-5,0-10.89,0-16.42.15-2.47.05-3.47-1-3.29-3.46a124.81,124.81,0,0,0,.52-15.22c-.1-2.1.84-2.61,2.82-2.73,4.94-.33,9.69,1,14.51,1.39,4.56.4,8.62,2.23,12.67,3.65,3.89,1.37,8.23,3.21,9.92,8.06S310.37,242.45,305.44,242.54Z"/><path class="cls-2" d="M94.24,206.11c-2.74.12-5.19,2.79-4,5.39,1.55,3.5.41,6.8.54,10.17.17,4.86.1,9.73.08,14.6,0,3.11-1.24,5.23-4.71,5.42-1.24.07-2.46.4-3.7.46-5.33.29-5.78-.25-5.64-5.55.17-6.65.21-13.3.27-19.95,0-1.63-.07-3.4-2-3.87s-3.88-.86-5.28,1.05c-.64.87-1.35,1.73-2.42,1.64-4.73-.39-9.42.94-14.6.28l1-1.53c1.37-2.06,1.75-4.13.15-6.28s-3.72-2.43-6-1.57c-1.53.57-2.86,0-4.29-.31a4.77,4.77,0,0,0-5.74,6.32c.87,2.68,3.52,3.85,6.58,2.81,1.47-.5,3.34-1,3.79.69s-1.67,1.32-2.73,1.64c-6.61,2-13.09,4.06-19,8-8.88,6-7.17,17.26,2.08,22.35a8.09,8.09,0,0,0,9-.36,6.19,6.19,0,0,1,4.25-1.44c2.71.08,5.42.1,8.12.21,12.33.5,24.66.09,37,0a20.5,20.5,0,0,0,5.34-.93c4.81-1.35,6.48-3.85,6.67-8.9.32-8.44-.84-16.89.39-25.33C99.79,208.28,97.19,206,94.24,206.11Zm-25.06,33.2c-.07,2-.82,2.75-2.91,2.73-10.39-.12-20.79-.19-31.18-.09-3.37,0-6.09-.43-7.07-4.17-.74-2.85,1.14-7.22,3.59-9,9.81-7.07,21.2-8.46,32.77-9.07,4.5-.24,5.19.7,5.27,5.36,0,.91,0,1.81,0,3.51C69.53,231.64,69.31,235.47,69.18,239.31Z"/></g><g id="feuille"><path class="cls-2" d="M203.87,167.33c6.9-1.69,8.53-7.53,11.33-12.13,6.74-11.1,10.4-23.57,15.25-35.52C237.27,102.87,245.07,86.49,256,72c10.24-13.7,22.87-25,38.61-32.32a76.29,76.29,0,0,1,7.91-3c1.21-.4,2.64-.39,3.18,1.1.62,1.71-.85,2-2,2.5-6.83,3-13.72,5.77-19.86,10.14a92.23,92.23,0,0,0-15.56,14.5c-12.88,14.58-19.88,32.38-27.53,49.87-6.78,15.5-13,31.33-22.4,45.53-7.24,10.9-15.27,21.1-27.13,27.38-12.86,6.82-26.17,8.6-40.26,3.73-15.09-5.22-23-16.38-27-31.06-.66-2.42-.2-4.23,2.58-4.91,3.14-.76,3.22,1.61,3.77,3.52,4.33,14.88,12.93,25.76,28.44,30a32.71,32.71,0,0,0,17.76-.52c11.5-3.23,20.7-9.9,28.69-18.53C206.57,168.3,205.38,168.05,203.87,167.33Z"/><path class="cls-2" d="M242,23.48a229.18,229.18,0,0,1,38.16,3.39c1.07.18,3.06,0,2.68,1.77-.42,2-2.59,2.29-4.18,1.93-4.33-1-8.73-1.33-13.09-1.94a178.46,178.46,0,0,0-40.15-1.35,142.55,142.55,0,0,0-39.5,8.87c-20.25,7.88-36.81,20.41-48,39.54-8.8,15.09-13.16,31.34-14,48.69-.12,2.42.68,5.52-2.89,6.44-2.07.54-3.42.29-3.4-2.52.12-20.5,4.88-39.72,15.89-57.11a89,89,0,0,1,35.37-31.9c16-8.18,33.22-11.7,50.74-14.22A166.6,166.6,0,0,1,242,23.48Z"/><path class="cls-2" d="M192,112.7a32,32,0,0,0,15.14-2.82c1.14-.5,2.24-1.09,3.4-1.54.9-.36,1.87-.39,2.31.68s-.25,1.83-1.22,2.41a36.5,36.5,0,0,1-23.14,4.7,16,16,0,0,0-9.77,1.86c-11.61,6.31-24.13,10.1-36.7,13.81a2.39,2.39,0,0,1-3.17-1.14c-.83-1.62.53-2.24,1.63-2.77a14.45,14.45,0,0,1,2.9-.94,190.63,190.63,0,0,0,23.79-8,6.47,6.47,0,0,0,3.46-3.11c3.44-6.57,8.38-12.07,12.73-18,.69-.93,1.55-2,2.76-1.08s.35,2.1-.31,3c-3.5,4.82-7,9.61-10.91,14.9,2.59-.08,4-1.54,5.62-2.32a115.11,115.11,0,0,0,29.39-20.8C214.85,86.82,217.09,81,219.4,75c1-2.53,1.89-5.09,2.92-7.61.37-.9.82-2.13,2.14-1.61,1.13.44,1.17,1.64.88,2.64-.38,1.3-1,2.53-1.46,3.8a18.32,18.32,0,0,0-1.5,6c4.07-4.45,8.12-8.92,12.21-13.36,2.84-3.07,5.7-6.13,8.61-9.14a9,9,0,0,1,2.45-1.78c1.36-.63,3-1.14,4.09.22s-.16,2.53-1.06,3.52q-10,11.07-20,22.08c-.82.91-1.62,1.82-2.89,3.25a11.4,11.4,0,0,0,6.39-2c1.93-1.19,3.83-2.42,5.76-3.6a1.48,1.48,0,0,1,2.13.29,1.41,1.41,0,0,1-.36,2.1c-4.39,3.2-8.88,6.46-14.22,7.64-3.45.76-6.3,1.73-8.76,4.42a117.4,117.4,0,0,1-23.37,19.36A11.66,11.66,0,0,0,192,112.7Z"/><path class="cls-2" d="M61.92,172.6a133.88,133.88,0,0,1-19,2.43c-1.67.1-4.38,1-4.52-1.19-.11-1.72,2.73-1.3,4.33-1.37,12.5-.58,25-2,36.53-6.74,3.81-1.56,8-1.8,11.64-4,4.12-2.52,8.53-4.68,12.54-7.4s8.13-5,11.48-8.41c2.47-2.52,5.56-2.79,8.69-3.12,1.12-.12,2.38,0,2.92,1.23s-.31,1.91-1,2.7c-3.35,4.08-7.59,7.16-11.91,10-5.15,3.42-10.57,6.51-16,9.52s-11.52,5.07-17.44,7.28c-9,3.37-18.41,5.49-27.68,8a91,91,0,0,1-10.69,1.78c-1.48.22-3.19.32-3.58-1.6a2.83,2.83,0,0,1,2.26-3.34c2.61-.71,5.31-1.11,8-1.72,4.54-1,9.08-2.13,13.62-3.2Z"/></g><g id="reserved"><path class="cls-2" d="M317,11.58a10.5,10.5,0,1,0,10.5,10.5A10.51,10.51,0,0,0,317,11.58ZM315.28,31a9.47,9.47,0,0,1-7.69-8.09,9.37,9.37,0,0,1,3.18-8.24,1.29,1.29,0,0,1,1.05.47c.19.22.18.79.18,1.68V25.9a3.74,3.74,0,0,1-.11,1.52,1.21,1.21,0,0,1-1.17.58h4.95a1.72,1.72,0,0,1-1.28-.45A2.72,2.72,0,0,1,314,25.9V21.81s.32,0,.42,0h.34c.22,0,.54-.2.89-.22L320.44,28h3.45A9.06,9.06,0,0,1,315.28,31ZM314,21.39V15.54a15.63,15.63,0,0,1,1.73-.2,3.06,3.06,0,0,1,2.23.83,2.91,2.91,0,0,1,.85,2.14,2.75,2.75,0,0,1-1,2.22,4.53,4.53,0,0,1-3,.87H314Zm10,6.67V28a3,3,0,0,1-1.77-.58,7.28,7.28,0,0,1-1.67-1.84l-2.88-4a4.8,4.8,0,0,0,2.64-1.35,3.32,3.32,0,0,0,.85-2.25,3.14,3.14,0,0,0-.74-2.09,4.05,4.05,0,0,0-1.81-1.36,10.82,10.82,0,0,0-3.3-.49h-4.07A11.05,11.05,0,0,1,317,12.18a9.5,9.5,0,0,1,9.4,9.58C326.43,24.14,326,26.39,324,28.06Z"/></g></svg>