<svg id="CARTANA_LOGO" data-name="CARTANA LOGO" xmlns="http://www.w3.org/2000/svg" width="80.36" height="80.388" viewBox="0 0 80.36 80.388">
  <path id="Tracé_220" data-name="Tracé 220" d="M69.011,6.472a46.06,46.06,0,0,0-22.168.644c-11.61,3.184-17.931,11.97-17.9,23.94,0-.1,1.308-.227,1.308-.351C30.191,10.2,49.639,2.728,67.7,6.823c.389.085.948-.445,1.308-.351" transform="translate(-1.507 -0.283)" fill="#fff"/>
  <path id="Tracé_221" data-name="Tracé 221" d="M28.939,35.607h-.161c-.341.085-.843,0-1.061.227-4.815,4.739-11.629,7.042-18.339,7.1-.445,0-.881.341-1.317.351A33.645,33.645,0,0,0,25.4,38.365c-4.625,3.3-10.548,5-15.941,5.933-.815.142-1.317,1.185-.2.948,7.212-1.232,15.316-3.791,20.547-9.127.521-.54,0-.588-.872-.559" transform="translate(-0.416 -1.858)" fill="#fff"/>
  <path id="Tracé_222" data-name="Tracé 222" d="M30.51,37.727c1.507,8.283,10.653,10.814,17.107,6.321C59.937,35.424,57.8,14.517,73.8,9.3c.758-.246.607-.843-.161-.588-9.97,3.251-15.287,14.216-18.633,23.4-2.085,5.686-5.98,12.131-12.434,13.42-5.45,1.071-9.838-3.1-10.757-8.122-.066-.408-1.384-.095-1.308.351" transform="translate(-1.589 -0.452)" fill="#fff"/>
  <path id="Tracé_223" data-name="Tracé 223" d="M59.972,13.15c-2.132,2.151-4.161,4.492-6.293,6.7l1.478-3.791c0-.114-.379-.275-.426-.152l-1.9,4.739a39.7,39.7,0,0,1-5.07,4.388,34.536,34.536,0,0,1-5.336,3.033,41.578,41.578,0,0,1,3.289-4.511c.171-.227-.142-.55-.322-.322a38.421,38.421,0,0,0-3.668,5.146,46.921,46.921,0,0,1-6.966,2.388c-.8.2-.607.891.18.682a49.282,49.282,0,0,0,10.425-4.1A9.184,9.184,0,0,0,52,26.295c.256-.142,0-.531-.227-.389a8.947,8.947,0,0,1-5.829,1.109l.294-.152a33.522,33.522,0,0,0,7.677-5.971,10.321,10.321,0,0,0,4.852-2.113c.095-.076-.284-.275-.389-.19a10.17,10.17,0,0,1-4.1,1.99c2.312-2.35,4.473-4.871,6.748-7.165.55-.55-.739-.559-1.052-.237" transform="translate(-1.785 -0.677)" fill="#fff"/>
  <path id="Tracé_224" data-name="Tracé 224" d="M16.244,69.948l-.825.635a4.578,4.578,0,0,0-1.649-1.346,4.862,4.862,0,0,0-4.426.142,4.3,4.3,0,0,0-1.659,1.611A4.53,4.53,0,0,0,7.1,73.275a4.274,4.274,0,0,0,1.317,3.241A4.549,4.549,0,0,0,11.733,77.8a4.653,4.653,0,0,0,3.687-1.725l.825.635a5.336,5.336,0,0,1-1.962,1.545,6.151,6.151,0,0,1-2.616.54A5.383,5.383,0,0,1,5.98,73.218a5.184,5.184,0,0,1,1.63-3.9,5.573,5.573,0,0,1,4.075-1.573,5.9,5.9,0,0,1,2.654.588,5.061,5.061,0,0,1,1.9,1.621" transform="translate(-0.307 -3.54)" fill="#fff"/>
  <path id="Tracé_225" data-name="Tracé 225" d="M23.253,68l4.89,10.5H27.016l-1.649-3.45H20.846l-1.63,3.45H18.05L23.007,68Zm-.123,2.227-1.8,3.791h3.582Z" transform="translate(-0.938 -3.553)" fill="#fff"/>
  <path id="Tracé_226" data-name="Tracé 226" d="M30.478,68h2.085a12.757,12.757,0,0,1,2.369.142,2.654,2.654,0,0,1,1.516.948,2.606,2.606,0,0,1,.588,1.753,2.739,2.739,0,0,1-.379,1.469,2.493,2.493,0,0,1-1.147.948,5.469,5.469,0,0,1-2.066.341l3.791,4.862H35.881L32.09,73.6h-.6v4.862H30.45Zm1.043,1.024v3.564h1.81a4.53,4.53,0,0,0,1.554-.2,1.677,1.677,0,0,0,.825-.6,1.9,1.9,0,0,0,.275-.948A1.7,1.7,0,0,0,35.7,69.9a1.583,1.583,0,0,0-.749-.616,4.568,4.568,0,0,0-1.545-.19Z" transform="translate(-1.586 -3.553)" fill="#fff"/>
  <path id="Tracé_227" data-name="Tracé 227" d="M38.67,69.044V68.02h5.743v1.024H42.072V78.5H41V69.044Z" transform="translate(-2.015 -3.554)" fill="#fff"/>
  <path id="Tracé_228" data-name="Tracé 228" d="M50.553,68l4.89,10.5H54.316l-1.659-3.45H48.146l-1.63,3.45H45.35L50.3,68Zm-.133,2.227-1.791,3.791h3.582Z" transform="translate(-2.365 -3.553)" fill="#fff"/>
  <path id="Tracé_229" data-name="Tracé 229" d="M57.72,78.5V68.02h.227l6.975,8.037V68.02h1.033V78.5h-.237L58.8,70.569V78.5Z" transform="translate(-3.011 -3.554)" fill="#fff"/>
  <path id="Tracé_230" data-name="Tracé 230" d="M73.333,68l4.89,10.482H77.1l-1.659-3.45H70.926l-1.63,3.45H68.13L73.077,68ZM73.2,70.227l-1.791,3.791h3.582Z" transform="translate(-3.555 -3.553)" fill="#fff"/>
  <path id="Tracé_231" data-name="Tracé 231" d="M16.346,54.226v-.749h1.478v7.061h1.839v.749H7.437a6.975,6.975,0,0,0,1.109.588H6.508a3.685,3.685,0,0,1-2.028-2.91c0-1.336,1.109-2.417,3.137-3.327a17.818,17.818,0,0,1,7.392-1.412Zm-1.3.663a15.922,15.922,0,0,0-6.464,1.242c-1.715.758-2.663,1.753-2.663,2.834A1.952,1.952,0,0,0,6.7,60.538h9.648V54.851Zm4.435,6.4v-.749c1.478,0,2.028-.332,2.028-1.08V54.226H23.17v5.232c0,1.166-1.289,1.829-3.687,1.829m8.643-.749h2.256v.749H26.648V53.145H26.1v-.663l2.028-.332Zm3.507,0V53.145h-.55v-.663l2.028-.332v4.4a11.43,11.43,0,0,1,3.876-1.7,20.85,20.85,0,0,1,5.175-.663A18.68,18.68,0,0,1,49.744,55.6c2.038.948,3.147,1.99,3.147,3.327s-1.118,2.559-3.156,3.44a18.263,18.263,0,0,1-7.392,1.327V63.03a17.524,17.524,0,0,0,4.255-.493,10.426,10.426,0,0,0,3.137-1.251H30.154v-.749Zm1.478-1.573v1.573H50.664a2.843,2.843,0,0,0,.749-1.573c0-1.08-.948-2.076-2.777-2.843a14.737,14.737,0,0,0-6.473-1.27,14.51,14.51,0,0,0-6.284,1.242c-1.9.758-2.767,1.753-2.767,2.843m25.674,2.322c-.18,1.412-1.659,2.246-4.616,2.493v-.663a4.616,4.616,0,0,0,2.4-.749,1.545,1.545,0,0,0,.739-1.488v-6H55.09v-.663h3.7v6.35h2.4v.749Zm2.4,0v-.72" transform="translate(-0.229 -2.725)" fill="#fff"/>
  <path id="Tracé_232" data-name="Tracé 232" d="M10.7,52.937a1.043,1.043,0,1,1-.488-.985,1.042,1.042,0,0,1,.488.985" transform="translate(-0.445 -2.707)" fill="#fff"/>
  <path id="Tracé_233" data-name="Tracé 233" d="M12.7,52.943A1.043,1.043,0,1,1,11.653,51.9,1.043,1.043,0,0,1,12.7,52.943" transform="translate(-0.549 -2.712)" fill="#fff"/>
  <path id="Tracé_234" data-name="Tracé 234" d="M24.2,52.943A1.043,1.043,0,1,1,23.162,51.9,1.043,1.043,0,0,1,24.2,52.943" transform="translate(-1.15 -2.712)" fill="#fff"/>
  <path id="Tracé_235" data-name="Tracé 235" d="M76.335,55.711A17.742,17.742,0,0,0,68.952,54.3H67.634V53.55H66.165v7.061h-1.9v.749H76.505a6.975,6.975,0,0,1-1.109.588h2.038a3.684,3.684,0,0,0,2.028-2.91c0-1.336-1.109-2.417-3.146-3.327m.967,4.9H67.634V54.924h1.3A15.951,15.951,0,0,1,75.387,56.2c1.659.758,2.587,1.753,2.587,2.843a1.981,1.981,0,0,1-.692,1.564" transform="translate(-3.353 -2.798)" fill="#fff"/>
  <path id="Tracé_236" data-name="Tracé 236" d="M74,52.937a1.043,1.043,0,1,0,.488-.985,1.043,1.043,0,0,0-.488.985" transform="translate(-3.861 -2.707)" fill="#fff"/>
  <path id="Tracé_237" data-name="Tracé 237" d="M72,52.943A1.043,1.043,0,1,0,73.043,51.9,1.042,1.042,0,0,0,72,52.943" transform="translate(-3.757 -2.712)" fill="#fff"/>
  <path id="Tracé_238" data-name="Tracé 238" d="M3.44,80.34A3.6,3.6,0,0,1,0,76.549V3.791A3.6,3.6,0,0,1,3.44,0H76.909a3.611,3.611,0,0,1,3.44,3.791V76.6a3.6,3.6,0,0,1-3.44,3.791Zm0-1.45H76.909A2.161,2.161,0,0,0,78.89,76.6V3.791A2.17,2.17,0,0,0,76.909,1.5H3.44A2.18,2.18,0,0,0,1.45,3.791V76.6A2.17,2.17,0,0,0,3.44,78.89" transform="translate(0.005)" fill="#fff"/>
  <path id="Tracé_239" data-name="Tracé 239" d="M81.167,3.053a2.269,2.269,0,0,1-3.184,3.232,2.208,2.208,0,0,1-.673-1.611,2.279,2.279,0,0,1,3.9-1.611m-3.033.18a2.028,2.028,0,0,0-.588,1.431,1.943,1.943,0,0,0,.6,1.422,1.971,1.971,0,0,0,2.843,0,2.009,2.009,0,0,0,.6-1.422,2.057,2.057,0,0,0-.588-1.441,1.981,1.981,0,0,0-2.843,0m1.478.085c.654,0,1.033.265,1.033.654s-.294.531-.948.644a.863.863,0,0,1,.682.682c.066.256,0,.493.227.493s.218-.152.218-.436h.142c0,.379-.18.578-.521.578a.417.417,0,0,1-.445-.123,3.9,3.9,0,0,1-.1-.673.6.6,0,0,0-.663-.436h-.114v.806c0,.237.1.3.408.322v.133H78.343V5.811c.3,0,.408-.085.408-.322V3.783c0-.246-.095-.313-.408-.322V3.319h1.27M79.4,4.532c.493,0,.758-.209.758-.559s-.227-.531-.635-.531c-.218,0-.341.085-.341.237v.843H79.4" transform="translate(-4.035 -0.125)" fill="#fff"/>
</svg>
