<svg viewBox="0 0 32 32" xmlns="http://www.w3.org/2000/svg"><path d="m31 21h-2v-5a13 13 0 0 0 -26 0v5h-2v-5a15 15 0 0 1 30 0z"/><path d="m7.23 27h-1.23a5 5 0 0 1 -5-5v-2a5 5 0 0 1 5-5h1.23a1.8 1.8 0 0 1 1.77 1.8v8.4a1.8 1.8 0 0 1 -1.77 1.8zm-1.23-10a3 3 0 0 0 -3 3v2a3 3 0 0 0 3 3h1v-8z"/><path d="m26 27h-1.2a1.8 1.8 0 0 1 -1.8-1.8v-8.4a1.8 1.8 0 0 1 1.8-1.8h1.2a5 5 0 0 1 5 5v2a5 5 0 0 1 -5 5zm-1-2h1a3 3 0 0 0 3-3v-2a3 3 0 0 0 -3-3h-1z"/><path d="m6 16h1.23a.8.8 0 0 1 .8.8v8.4a.8.8 0 0 1 -.8.8h-1.23a4 4 0 0 1 -4-4v-2a4 4 0 0 1 4-4z"/><path d="m28 16h1.2a.8.8 0 0 1 .8.8v8.4a.8.8 0 0 1 -.8.8h-1.2a4 4 0 0 1 -4-4v-2a4 4 0 0 1 4-4z" transform="matrix(-1 0 0 -1 54 42)"/><path d="m23.89 31h-6.89a1 1 0 0 1 -1-1 1 1 0 0 1 1-1h7a1 1 0 0 0 1-1v-2h2v2a3 3 0 0 1 -1.31 2.49 3.13 3.13 0 0 1 -1.8.51z"/></svg>