<svg height="21.632" viewBox="0 0 23.511 21.632" width="23.511" xmlns="http://www.w3.org/2000/svg"><path d="m18.476 37.018h-9.337l-.539-2.168h12.239l2.672-10.688h-17.586l-.925-3.702h-5v1.534h3.8l3.775 15.1a2.537 2.537 0 1 0 2.94 1.459h5.629a2.536 2.536 0 1 0 2.329-1.534zm-5.3-3.7h-1.7l-.38-3.043h2.084v3.043zm5.735-7.62h2.632l-.761 3.043h-2.248zm-.572 4.577h2.061l-.761 3.043h-1.677zm-3.625-4.575h2.655l-.38 3.043h-2.275zm0 4.577h2.086l-.38 3.043h-1.7v-3.047zm-1.534-4.577v3.043h-2.275l-.38-3.043zm-6.871 0h2.67l.38 3.043h-2.289zm1.144 4.577h2.1l.38 3.043h-1.719zm.735 10.285a1 1 0 1 1 1-1 1 1 0 0 1 -1 .996zm10.288 0a1 1 0 1 1 1-1 1 1 0 0 1 -1 .996z" fill="#fff" transform="translate(0 -20.46)"/></svg>