<svg xmlns="http://www.w3.org/2000/svg" viewBox="0 0 391.44 317.66"><defs><style>.cls-1{fill:#fff;}</style></defs><title>STYLE CHIC ( svg )</title><g id="Calque_2" data-name="Calque 2"><path class="cls-1" d="M276.89,99.4a5.45,5.45,0,0,0,2.65.71,5.38,5.38,0,0,0,2.66-.71,4.94,4.94,0,0,0,2-2,5.32,5.32,0,0,0,0-5.33,5,5,0,0,0-2-2,5.41,5.41,0,0,0-5.25,0,5,5,0,0,0-2,2,5.42,5.42,0,0,0-.72,2.68,5.31,5.31,0,0,0,.72,2.65A4.94,4.94,0,0,0,276.89,99.4Zm-1.21-6.86a4.14,4.14,0,0,1,1.67-1.65,4.49,4.49,0,0,1,4.38,0,4.14,4.14,0,0,1,1.67,1.65,4.46,4.46,0,0,1,.59,2.23A4.39,4.39,0,0,1,283.4,97a4.13,4.13,0,0,1-1.64,1.65,4.45,4.45,0,0,1-4.43,0A4.22,4.22,0,0,1,275.68,97a4.49,4.49,0,0,1-.59-2.21A4.56,4.56,0,0,1,275.68,92.54Z"/><path class="cls-1" d="M278.13,95.28h.55a1.14,1.14,0,0,1,.74.2l.12.1a6.4,6.4,0,0,1,.84,1.23l.51.91H282l-.71-1.12a5.53,5.53,0,0,0-.85-1.14,1.48,1.48,0,0,0-.48-.31,1.8,1.8,0,0,0,1.19-.52,1.53,1.53,0,0,0,.45-1.1,1.49,1.49,0,0,0-.27-.84,1.42,1.42,0,0,0-.72-.56,4.31,4.31,0,0,0-1.1-.15H277.2v5.74h.93Zm0-2.52h1.41a1.67,1.67,0,0,1,.57.1.85.85,0,0,1,.4.29.83.83,0,0,1,.14.46.77.77,0,0,1-.3.64,1.37,1.37,0,0,1-.81.23h-1.41Z"/><polygon class="cls-1" points="125.95 102.05 125.95 49.76 265.5 49.76 265.5 102.05 269.37 102.05 269.37 45.88 122.07 45.88 122.07 102.05 125.95 102.05"/><polygon class="cls-1" points="265.5 195.08 265.5 204.81 125.95 204.81 125.95 195.08 122.07 195.08 122.07 208.69 269.37 208.69 269.37 195.08 265.5 195.08"/><path class="cls-1" d="M126.92,159.75v11.92a2.91,2.91,0,0,1-5.82,0V125.6a2.91,2.91,0,0,1,5.82,0v11.92h14.53V123.8a15.94,15.94,0,0,0-15.93-15.94h-3a15.94,15.94,0,0,0-15.93,15.94v49.53a15.94,15.94,0,0,0,15.93,15.94h3a15.94,15.94,0,0,0,15.93-15.94V159.75Z"/><path class="cls-1" d="M270.34,159.75v11.92a2.91,2.91,0,1,1-5.81,0V125.6a2.91,2.91,0,1,1,5.81,0v11.92h14.54V123.8a15.94,15.94,0,0,0-15.94-15.94h-3A15.94,15.94,0,0,0,250,123.8v49.53a15.94,15.94,0,0,0,15.94,15.94h3a15.94,15.94,0,0,0,15.94-15.94V159.75Z"/><polygon class="cls-1" points="181.19 107.7 181.19 142.31 175.37 142.31 175.37 107.7 160.84 107.7 160.84 189.18 175.37 189.18 175.37 154.57 181.19 154.57 181.19 189.18 195.72 189.18 195.72 107.7 181.19 107.7"/><rect class="cls-1" x="215.1" y="107.99" width="15.51" height="81.32"/><polygon class="cls-1" points="214.75 65.27 214.75 96.28 228.45 96.28 228.45 91.81 220.62 91.81 220.62 65.27 214.75 65.27"/><path class="cls-1" d="M144.61,91.94a2.93,2.93,0,0,1-2-1.14,11.18,11.18,0,0,1-2-3.52l-3,2.83a10.24,10.24,0,0,0,3.36,4.51,7.52,7.52,0,0,0,4.57,1.66,6.76,6.76,0,0,0,3.64-1.1A7.79,7.79,0,0,0,152,91.91,12.19,12.19,0,0,0,153,86.57a9.29,9.29,0,0,0-.68-3.61,10,10,0,0,0-1.76-2.84,14.72,14.72,0,0,0-2.27-2.1c-.78-.6-1.76-1.27-2.93-2a3.45,3.45,0,0,1-1.47-1.43,3.64,3.64,0,0,1-.46-1.81,4,4,0,0,1,.76-2.44,2.16,2.16,0,0,1,1.77-1,2.71,2.71,0,0,1,2,1.13,9.54,9.54,0,0,1,1.7,3.51L152.43,71a10.56,10.56,0,0,0-1.94-3.13,8.26,8.26,0,0,0-2.6-1.93,6.47,6.47,0,0,0-2.77-.65,5.7,5.7,0,0,0-2.65.65,6.48,6.48,0,0,0-2.25,1.92,10.17,10.17,0,0,0-1.53,3.24,16.26,16.26,0,0,0-.58,4.57,8.51,8.51,0,0,0,.64,3.35,9,9,0,0,0,1.69,2.62,13.87,13.87,0,0,0,2.08,1.86c.67.49,1.72,1.18,3.13,2.09a2.52,2.52,0,0,1,1.08,1.22,4.23,4.23,0,0,1,.35,1.69,4.16,4.16,0,0,1-.72,2.39A2.05,2.05,0,0,1,144.61,91.94Z"/><polygon class="cls-1" points="253.87 69.68 253.87 65.27 240.2 65.27 240.2 96.28 253.87 96.28 253.87 91.81 246.26 91.81 246.26 82.73 253.26 82.73 253.26 78.31 246.26 78.31 246.26 69.68 253.87 69.68"/><polygon class="cls-1" points="199.06 80.92 205.38 65.27 202.07 65.27 197.77 76.06 193.47 65.27 186.95 65.27 193.21 81.29 193.21 96.28 199.06 96.28 199.06 80.92"/><polygon class="cls-1" points="173.72 96.28 173.72 69.68 178.97 69.68 178.97 65.27 162.5 65.27 162.5 69.68 167.94 69.68 167.94 96.28 173.72 96.28"/><path class="cls-1" d="M61,251.22l-4.48-11.14h1.59l3.75,9.62,3.76-9.62h1.59l-4.49,11.14Z"/><path class="cls-1" d="M69.57,245.66a5.53,5.53,0,1,1,5.52,5.76A5.43,5.43,0,0,1,69.57,245.66Zm9.61,0c0-2.61-1.6-4.53-4.09-4.53S71,243.05,71,245.66s1.59,4.52,4.09,4.52S79.18,248.25,79.18,245.66Z"/><path class="cls-1" d="M86.77,251.22v-9.9H83.24v-1.24h8.45v1.24H88.15v9.9Z"/><path class="cls-1" d="M101.64,251.22l-2.84-4.43H96.58v4.43H95.2V240.08h4.47a3.25,3.25,0,0,1,3.49,3.36,3.09,3.09,0,0,1-2.89,3.24l3,4.54Zm.09-7.78a2.08,2.08,0,0,0-2.23-2.12H96.58v4.25H99.5A2.09,2.09,0,0,0,101.73,243.44Z"/><path class="cls-1" d="M107,251.22V240.08h7.3v1.24h-5.91v3.59h5.79v1.23h-5.79V250h5.91v1.24Z"/><path class="cls-1" d="M124.17,251.22V240.08h7.29v1.24h-5.9v3.59h5.79v1.23h-5.79V250h5.9v1.24Z"/><path class="cls-1" d="M143,251.22l-3.56-4.74-3.55,4.74h-1.69l4.34-5.71-4.09-5.43h1.69l3.3,4.46,3.29-4.46h1.69l-4.08,5.41,4.33,5.73Z"/><path class="cls-1" d="M147.9,251.22V240.08h4.47a3.36,3.36,0,1,1,0,6.71h-3.09v4.43Zm6.52-7.78a2.07,2.07,0,0,0-2.22-2.12h-2.92v4.24h2.92A2.07,2.07,0,0,0,154.42,243.44Z"/><path class="cls-1" d="M159.37,251.22V240.08h7.29v1.24h-5.91v3.59h5.8v1.23h-5.8V250h5.91v1.24Z"/><path class="cls-1" d="M177,251.22l-2.84-4.43h-2.22v4.43h-1.39V240.08H175a3.25,3.25,0,0,1,3.49,3.36,3.08,3.08,0,0,1-2.88,3.24l3,4.54Zm.08-7.78a2.07,2.07,0,0,0-2.22-2.12h-2.92v4.25h2.92A2.08,2.08,0,0,0,177.07,243.44Z"/><path class="cls-1" d="M185,251.22v-9.9h-3.52v-1.24h8.45v1.24h-3.54v9.9Z"/><path class="cls-1" d="M199.36,251.22V240.08h5a2.81,2.81,0,0,1,3.12,2.84,2.54,2.54,0,0,1-1.95,2.56,2.78,2.78,0,0,1,2.17,2.73,2.91,2.91,0,0,1-3.22,3Zm6.65-8.1a1.75,1.75,0,0,0-1.92-1.8h-3.34v3.59h3.34A1.73,1.73,0,0,0,206,243.12Zm.21,4.94a1.89,1.89,0,0,0-2.07-1.92h-3.4V250h3.4A1.84,1.84,0,0,0,206.22,248.06Z"/><path class="cls-1" d="M211.54,251.22V240.08h7.29v1.24h-5.91v3.59h5.79v1.23h-5.79V250h5.91v1.24Z"/><path class="cls-1" d="M230.65,251.22l-1-2.47h-5.54l-1,2.47h-1.59L226,240.08h1.72l4.49,11.14Zm-3.75-9.7-2.37,6h4.72Z"/><path class="cls-1" d="M234.93,246.89v-6.81h1.39v6.78c0,2,1.1,3.32,3.15,3.32s3.16-1.28,3.16-3.32v-6.78H244v6.8c0,2.77-1.52,4.54-4.54,4.54S234.93,249.63,234.93,246.89Z"/><path class="cls-1" d="M251,251.22v-9.9h-3.52v-1.24H256v1.24h-3.54v9.9Z"/><path class="cls-1" d="M259.48,251.22V240.08h7.29v1.24h-5.91v3.59h5.8v1.23h-5.8V250h5.91v1.24Z"/><path class="cls-1" d="M270.92,253.34l-.62-.52a2.47,2.47,0,0,0,1.08-1.55,1.07,1.07,0,0,1-.23,0,.79.79,0,0,1-.8-.85.89.89,0,0,1,.88-.9,1.13,1.13,0,0,1,1,1.27A3.25,3.25,0,0,1,270.92,253.34Z"/><path class="cls-1" d="M281.47,249.65l.82-1.05a4.71,4.71,0,0,0,3.5,1.58c2,0,2.62-1.07,2.62-1.92,0-2.87-6.59-1.28-6.59-5.26,0-1.83,1.64-3.08,3.82-3.08a5.24,5.24,0,0,1,4,1.55l-.84,1a4.25,4.25,0,0,0-3.22-1.34c-1.33,0-2.29.72-2.29,1.77,0,2.5,6.6,1.07,6.6,5.23,0,1.62-1.1,3.27-4.11,3.27A5.54,5.54,0,0,1,281.47,249.65Z"/><path class="cls-1" d="M293.14,245.66a5.53,5.53,0,1,1,5.53,5.76A5.43,5.43,0,0,1,293.14,245.66Zm9.62,0c0-2.61-1.61-4.53-4.09-4.53s-4.09,1.92-4.09,4.53,1.58,4.52,4.09,4.52S302.76,248.25,302.76,245.66Z"/><path class="cls-1" d="M308,251.22V240.08h1.38v11.14Z"/><path class="cls-1" d="M321.58,251.22l-6.5-8.88v8.88H313.7V240.08h1.41l6.41,8.7v-8.7h1.39v11.14Z"/><path class="cls-1" d="M326.52,249.65l.82-1.05a4.73,4.73,0,0,0,3.5,1.58c2,0,2.63-1.07,2.63-1.92,0-2.87-6.6-1.28-6.6-5.26,0-1.83,1.64-3.08,3.82-3.08a5.2,5.2,0,0,1,4,1.55l-.83,1a4.28,4.28,0,0,0-3.23-1.34c-1.33,0-2.28.72-2.28,1.77,0,2.5,6.59,1.07,6.59,5.23,0,1.62-1.1,3.27-4.1,3.27A5.54,5.54,0,0,1,326.52,249.65Z"/><path class="cls-1" d="M70,271.26c-.33-.29-.77-.71-1.22-1.17a4.41,4.41,0,0,1-3.2,1.37c-1.92,0-3.48-1-3.48-3.11,0-1.74,1.17-2.62,2.46-3.3a5.25,5.25,0,0,1-.85-2.51,2.66,2.66,0,0,1,2.8-2.59,2.23,2.23,0,0,1,2.52,2.19c0,1.67-1.42,2.4-2.84,3.14a19.47,19.47,0,0,0,1.29,1.58c.45.54.88,1,1.32,1.49a10.35,10.35,0,0,0,1.2-2.54l1.09.47a16,16,0,0,1-1.52,2.87c.65.69,1.35,1.35,2.17,2.11Zm-2-1.94c-.63-.67-1.22-1.3-1.54-1.69a22.31,22.31,0,0,1-1.4-1.77,2.8,2.8,0,0,0-1.63,2.41,2.11,2.11,0,0,0,2.23,2.15A3.34,3.34,0,0,0,68.07,269.32Zm-2.35-4.84c1.18-.59,2.2-1.19,2.2-2.29a1.2,1.2,0,0,0-1.32-1.25,1.56,1.56,0,0,0-1.55,1.62A4,4,0,0,0,65.72,264.48Z"/><path class="cls-1" d="M80.75,265.7a5.57,5.57,0,0,1,5.72-5.76,5,5,0,0,1,4.23,2.2l-1.17.65a3.79,3.79,0,0,0-3.06-1.62,4.53,4.53,0,0,0,0,9.05,3.73,3.73,0,0,0,3.06-1.62l1.18.65a5,5,0,0,1-4.24,2.21A5.57,5.57,0,0,1,80.75,265.7Z"/><path class="cls-1" d="M93.7,265.7a5.53,5.53,0,1,1,5.53,5.76A5.43,5.43,0,0,1,93.7,265.7Zm9.62,0c0-2.61-1.6-4.53-4.09-4.53s-4.09,1.92-4.09,4.53,1.59,4.52,4.09,4.52S103.32,268.28,103.32,265.7Z"/><path class="cls-1" d="M107.93,269.69l.82-1.06a4.7,4.7,0,0,0,3.5,1.59c2,0,2.63-1.07,2.63-1.92,0-2.87-6.6-1.28-6.6-5.26,0-1.83,1.64-3.09,3.82-3.09a5.21,5.21,0,0,1,4,1.56l-.83,1a4.28,4.28,0,0,0-3.23-1.34c-1.33,0-2.28.72-2.28,1.77,0,2.5,6.59,1.07,6.59,5.22,0,1.62-1.1,3.28-4.1,3.28A5.54,5.54,0,0,1,107.93,269.69Z"/><path class="cls-1" d="M129.57,271.26v-9.17l-3.79,9.17h-.57l-3.77-9.17v9.17h-1.39V260.12h2l3.46,8.38,3.47-8.38h2v11.14Z"/><path class="cls-1" d="M135.23,271.26V260.12h7.3v1.24h-5.91V265h5.79v1.23h-5.79V270h5.91v1.24Z"/><path class="cls-1" d="M149.16,271.26v-9.9h-3.52v-1.24h8.44v1.24h-3.54v9.9Z"/><path class="cls-1" d="M157.59,271.26V260.12H159v11.14Z"/><path class="cls-1" d="M162.8,265.7a5.53,5.53,0,1,1,11,0,5.86,5.86,0,0,1-1.53,4.1l1.06,1.14-1,.83-1.09-1.15a5.53,5.53,0,0,1-3,.84A5.43,5.43,0,0,1,162.8,265.7Zm7.65,3.95-1.59-1.72,1-.81,1.57,1.7a4.91,4.91,0,0,0,1-3.12c0-2.61-1.61-4.53-4.09-4.53s-4.09,1.92-4.09,4.53,1.58,4.52,4.09,4.52A4,4,0,0,0,170.45,269.65Z"/><path class="cls-1" d="M177.7,266.93v-6.81h1.38v6.78c0,2,1.1,3.32,3.16,3.32s3.15-1.28,3.15-3.32v-6.78h1.39v6.8c0,2.77-1.52,4.54-4.54,4.54S177.7,269.67,177.7,266.93Z"/><path class="cls-1" d="M191.05,271.26V260.12h7.3v1.24h-5.91V265h5.79v1.23h-5.79V270h5.91v1.24Z"/><path class="cls-1" d="M201.56,269.69l.82-1.06a4.68,4.68,0,0,0,3.5,1.59c2,0,2.62-1.07,2.62-1.92,0-2.87-6.59-1.28-6.59-5.26,0-1.83,1.64-3.09,3.82-3.09a5.24,5.24,0,0,1,4,1.56l-.84,1a4.25,4.25,0,0,0-3.22-1.34c-1.33,0-2.29.72-2.29,1.77,0,2.5,6.6,1.07,6.6,5.22,0,1.62-1.1,3.28-4.11,3.28A5.54,5.54,0,0,1,201.56,269.69Z"/><path class="cls-1" d="M219.66,271.26V260.12h3.81a5.57,5.57,0,1,1,0,11.14Zm8.08-5.56a4.07,4.07,0,0,0-4.27-4.34h-2.42V270h2.42A4.09,4.09,0,0,0,227.74,265.7Z"/><path class="cls-1" d="M233,271.26V260.12h7.29v1.24H234.4V265h5.8v1.23h-5.8V270h5.91v1.24Z"/><path class="cls-1" d="M244.19,271.26V260.12h4.47a3.36,3.36,0,1,1,0,6.71h-3.08v4.43Zm6.53-7.78a2.06,2.06,0,0,0-2.22-2.12h-2.92v4.24h2.92A2.07,2.07,0,0,0,250.72,263.48Z"/><path class="cls-1" d="M255.66,266.93v-6.81h1.39v6.78c0,2,1.1,3.32,3.15,3.32s3.16-1.28,3.16-3.32v-6.78h1.38v6.8c0,2.77-1.52,4.54-4.54,4.54S255.66,269.67,255.66,266.93Z"/><path class="cls-1" d="M269,271.26V260.12h1.39v11.14Z"/><path class="cls-1" d="M274,269.69l.82-1.06a4.72,4.72,0,0,0,3.51,1.59c2,0,2.62-1.07,2.62-1.92,0-2.87-6.6-1.28-6.6-5.26,0-1.83,1.64-3.09,3.83-3.09a5.2,5.2,0,0,1,3.95,1.56l-.83,1a4.28,4.28,0,0,0-3.22-1.34c-1.34,0-2.29.72-2.29,1.77,0,2.5,6.59,1.07,6.59,5.22,0,1.62-1.1,3.28-4.1,3.28A5.54,5.54,0,0,1,274,269.69Z"/><path class="cls-1" d="M293.78,271.26V262L292,263.84l-.84-.85,2.79-2.87h1.22v11.14Z"/><path class="cls-1" d="M299.54,270.1l.71-1a2.85,2.85,0,0,0,2.38,1.13c2.26,0,3.14-2.25,3.14-4.35a3.39,3.39,0,0,0,0-.45,4,4,0,0,1-3.13,1.73,3.37,3.37,0,0,1-3.66-3.55,3.66,3.66,0,0,1,3.89-3.64c3.12,0,4.31,2.72,4.31,5.76s-1.41,5.74-4.53,5.74A3.89,3.89,0,0,1,299.54,270.1Zm6.16-5.82c-.11-1.39-.85-3.11-2.78-3.11a2.43,2.43,0,0,0-2.56,2.36,2.31,2.31,0,0,0,2.57,2.4A3.33,3.33,0,0,0,305.7,264.28Z"/><path class="cls-1" d="M311.08,270.1l.7-1a2.88,2.88,0,0,0,2.39,1.13c2.25,0,3.14-2.25,3.14-4.35a3.39,3.39,0,0,0,0-.45,4,4,0,0,1-3.14,1.73,3.37,3.37,0,0,1-3.65-3.55,3.66,3.66,0,0,1,3.89-3.64c3.12,0,4.31,2.72,4.31,5.76s-1.41,5.74-4.53,5.74A3.88,3.88,0,0,1,311.08,270.1Zm6.16-5.82c-.11-1.39-.85-3.11-2.78-3.11a2.43,2.43,0,0,0-2.56,2.36,2.31,2.31,0,0,0,2.57,2.4A3.33,3.33,0,0,0,317.24,264.28Z"/><path class="cls-1" d="M321.7,269.62l.82-.87a3.87,3.87,0,0,0,3.11,1.47c1.62,0,2.6-.8,2.6-2.09s-1.14-2-2.77-2c-.47,0-1,0-1.15,0v-1.27c.18,0,.7,0,1.15,0,1.4,0,2.59-.55,2.59-1.84s-1.14-1.9-2.49-1.9a3.79,3.79,0,0,0-2.94,1.35l-.77-.87a4.86,4.86,0,0,1,3.81-1.72c2.14,0,3.77,1.09,3.77,3a2.7,2.7,0,0,1-2.4,2.58,2.8,2.8,0,0,1,2.57,2.74c0,1.85-1.49,3.21-3.94,3.21A4.71,4.71,0,0,1,321.7,269.62Z"/></g></svg>