<svg viewBox="0 0 391.44 317.66" xmlns="http://www.w3.org/2000/svg"><g fill="#fff"><path d="m276.89 99.4a5.45 5.45 0 0 0 2.65.71 5.38 5.38 0 0 0 2.66-.71 4.94 4.94 0 0 0 2-2 5.32 5.32 0 0 0 0-5.33 5 5 0 0 0 -2-2 5.41 5.41 0 0 0 -5.25 0 5 5 0 0 0 -2 2 5.42 5.42 0 0 0 -.72 2.68 5.31 5.31 0 0 0 .72 2.65 4.94 4.94 0 0 0 1.94 2zm-1.21-6.86a4.14 4.14 0 0 1 1.67-1.65 4.49 4.49 0 0 1 4.38 0 4.14 4.14 0 0 1 1.67 1.65 4.46 4.46 0 0 1 .59 2.23 4.39 4.39 0 0 1 -.59 2.23 4.13 4.13 0 0 1 -1.64 1.65 4.45 4.45 0 0 1 -4.43 0 4.22 4.22 0 0 1 -1.65-1.65 4.49 4.49 0 0 1 -.59-2.21 4.56 4.56 0 0 1 .59-2.25z"/><path d="m278.13 95.28h.55a1.14 1.14 0 0 1 .74.2l.12.1a6.4 6.4 0 0 1 .84 1.23l.51.91h1.11l-.71-1.12a5.53 5.53 0 0 0 -.85-1.14 1.48 1.48 0 0 0 -.48-.31 1.8 1.8 0 0 0 1.19-.52 1.53 1.53 0 0 0 .45-1.1 1.49 1.49 0 0 0 -.27-.84 1.42 1.42 0 0 0 -.72-.56 4.31 4.31 0 0 0 -1.1-.15h-2.31v5.74h.93zm0-2.52h1.41a1.67 1.67 0 0 1 .57.1.85.85 0 0 1 .4.29.83.83 0 0 1 .14.46.77.77 0 0 1 -.3.64 1.37 1.37 0 0 1 -.81.23h-1.41z"/><path d="m125.95 102.05v-52.29h139.55v52.29h3.87v-56.17h-147.3v56.17z"/><path d="m265.5 195.08v9.73h-139.55v-9.73h-3.88v13.61h147.3v-13.61z"/><path d="m126.92 159.75v11.92a2.91 2.91 0 0 1 -5.82 0v-46.07a2.91 2.91 0 0 1 5.82 0v11.92h14.53v-13.72a15.94 15.94 0 0 0 -15.93-15.94h-3a15.94 15.94 0 0 0 -15.93 15.94v49.53a15.94 15.94 0 0 0 15.93 15.94h3a15.94 15.94 0 0 0 15.93-15.94v-13.58z"/><path d="m270.34 159.75v11.92a2.91 2.91 0 1 1 -5.81 0v-46.07a2.91 2.91 0 1 1 5.81 0v11.92h14.54v-13.72a15.94 15.94 0 0 0 -15.94-15.94h-3a15.94 15.94 0 0 0 -15.94 15.94v49.53a15.94 15.94 0 0 0 15.94 15.94h3a15.94 15.94 0 0 0 15.94-15.94v-13.58z"/><path d="m181.19 107.7v34.61h-5.82v-34.61h-14.53v81.48h14.53v-34.61h5.82v34.61h14.53v-81.48z"/><path d="m215.1 107.99h15.51v81.32h-15.51z"/><path d="m214.75 65.27v31.01h13.7v-4.47h-7.83v-26.54z"/><path d="m144.61 91.94a2.93 2.93 0 0 1 -2-1.14 11.18 11.18 0 0 1 -2-3.52l-3 2.83a10.24 10.24 0 0 0 3.36 4.51 7.52 7.52 0 0 0 4.57 1.66 6.76 6.76 0 0 0 3.64-1.1 7.79 7.79 0 0 0 2.82-3.27 12.19 12.19 0 0 0 1-5.34 9.29 9.29 0 0 0 -.68-3.61 10 10 0 0 0 -1.76-2.84 14.72 14.72 0 0 0 -2.27-2.1c-.78-.6-1.76-1.27-2.93-2a3.45 3.45 0 0 1 -1.47-1.43 3.64 3.64 0 0 1 -.46-1.81 4 4 0 0 1 .76-2.44 2.16 2.16 0 0 1 1.77-1 2.71 2.71 0 0 1 2 1.13 9.54 9.54 0 0 1 1.7 3.51l2.77-2.98a10.56 10.56 0 0 0 -1.94-3.13 8.26 8.26 0 0 0 -2.6-1.93 6.47 6.47 0 0 0 -2.77-.65 5.7 5.7 0 0 0 -2.65.65 6.48 6.48 0 0 0 -2.25 1.92 10.17 10.17 0 0 0 -1.53 3.24 16.26 16.26 0 0 0 -.58 4.57 8.51 8.51 0 0 0 .64 3.35 9 9 0 0 0 1.69 2.62 13.87 13.87 0 0 0 2.08 1.86c.67.49 1.72 1.18 3.13 2.09a2.52 2.52 0 0 1 1.08 1.22 4.23 4.23 0 0 1 .35 1.69 4.16 4.16 0 0 1 -.72 2.39 2.05 2.05 0 0 1 -1.75 1.05z"/><path d="m253.87 69.68v-4.41h-13.67v31.01h13.67v-4.47h-7.61v-9.08h7v-4.42h-7v-8.63z"/><path d="m199.06 80.92 6.32-15.65h-3.31l-4.3 10.79-4.3-10.79h-6.52l6.26 16.02v14.99h5.85z"/><path d="m173.72 96.28v-26.6h5.25v-4.41h-16.47v4.41h5.44v26.6z"/><path d="m61 251.22-4.48-11.14h1.59l3.75 9.62 3.76-9.62h1.59l-4.49 11.14z"/><path d="m69.57 245.66a5.53 5.53 0 1 1 5.52 5.76 5.43 5.43 0 0 1 -5.52-5.76zm9.61 0c0-2.61-1.6-4.53-4.09-4.53s-4.09 1.92-4.09 4.53 1.59 4.52 4.09 4.52 4.09-1.93 4.09-4.52z"/><path d="m86.77 251.22v-9.9h-3.53v-1.24h8.45v1.24h-3.54v9.9z"/><path d="m101.64 251.22-2.84-4.43h-2.22v4.43h-1.38v-11.14h4.47a3.25 3.25 0 0 1 3.49 3.36 3.09 3.09 0 0 1 -2.89 3.24l3 4.54zm.09-7.78a2.08 2.08 0 0 0 -2.23-2.12h-2.92v4.25h2.92a2.09 2.09 0 0 0 2.23-2.13z"/><path d="m107 251.22v-11.14h7.3v1.24h-5.91v3.59h5.79v1.23h-5.79v3.86h5.91v1.24z"/><path d="m124.17 251.22v-11.14h7.29v1.24h-5.9v3.59h5.79v1.23h-5.79v3.86h5.9v1.24z"/><path d="m143 251.22-3.56-4.74-3.55 4.74h-1.69l4.34-5.71-4.09-5.43h1.69l3.3 4.46 3.29-4.46h1.69l-4.08 5.41 4.33 5.73z"/><path d="m147.9 251.22v-11.14h4.47a3.36 3.36 0 1 1 0 6.71h-3.09v4.43zm6.52-7.78a2.07 2.07 0 0 0 -2.22-2.12h-2.92v4.24h2.92a2.07 2.07 0 0 0 2.22-2.12z"/><path d="m159.37 251.22v-11.14h7.29v1.24h-5.91v3.59h5.8v1.23h-5.8v3.86h5.91v1.24z"/><path d="m177 251.22-2.84-4.43h-2.22v4.43h-1.39v-11.14h4.45a3.25 3.25 0 0 1 3.49 3.36 3.08 3.08 0 0 1 -2.88 3.24l3 4.54zm.08-7.78a2.07 2.07 0 0 0 -2.22-2.12h-2.92v4.25h2.92a2.08 2.08 0 0 0 2.21-2.13z"/><path d="m185 251.22v-9.9h-3.52v-1.24h8.45v1.24h-3.54v9.9z"/><path d="m199.36 251.22v-11.14h5a2.81 2.81 0 0 1 3.12 2.84 2.54 2.54 0 0 1 -1.95 2.56 2.78 2.78 0 0 1 2.17 2.73 2.91 2.91 0 0 1 -3.22 3zm6.65-8.1a1.75 1.75 0 0 0 -1.92-1.8h-3.34v3.59h3.34a1.73 1.73 0 0 0 1.91-1.79zm.21 4.94a1.89 1.89 0 0 0 -2.07-1.92h-3.4v3.86h3.4a1.84 1.84 0 0 0 2.07-1.94z"/><path d="m211.54 251.22v-11.14h7.29v1.24h-5.91v3.59h5.79v1.23h-5.79v3.86h5.91v1.24z"/><path d="m230.65 251.22-1-2.47h-5.54l-1 2.47h-1.59l4.48-11.14h1.72l4.49 11.14zm-3.75-9.7-2.37 6h4.72z"/><path d="m234.93 246.89v-6.81h1.39v6.78c0 2 1.1 3.32 3.15 3.32s3.16-1.28 3.16-3.32v-6.78h1.37v6.8c0 2.77-1.52 4.54-4.54 4.54s-4.53-1.79-4.53-4.53z"/><path d="m251 251.22v-9.9h-3.52v-1.24h8.52v1.24h-3.54v9.9z"/><path d="m259.48 251.22v-11.14h7.29v1.24h-5.91v3.59h5.8v1.23h-5.8v3.86h5.91v1.24z"/><path d="m270.92 253.34-.62-.52a2.47 2.47 0 0 0 1.08-1.55 1.07 1.07 0 0 1 -.23 0 .79.79 0 0 1 -.8-.85.89.89 0 0 1 .88-.9 1.13 1.13 0 0 1 1 1.27 3.25 3.25 0 0 1 -1.31 2.55z"/><path d="m281.47 249.65.82-1.05a4.71 4.71 0 0 0 3.5 1.58c2 0 2.62-1.07 2.62-1.92 0-2.87-6.59-1.28-6.59-5.26 0-1.83 1.64-3.08 3.82-3.08a5.24 5.24 0 0 1 4 1.55l-.84 1a4.25 4.25 0 0 0 -3.22-1.34c-1.33 0-2.29.72-2.29 1.77 0 2.5 6.6 1.07 6.6 5.23 0 1.62-1.1 3.27-4.11 3.27a5.54 5.54 0 0 1 -4.31-1.75z"/><path d="m293.14 245.66a5.53 5.53 0 1 1 5.53 5.76 5.43 5.43 0 0 1 -5.53-5.76zm9.62 0c0-2.61-1.61-4.53-4.09-4.53s-4.09 1.92-4.09 4.53 1.58 4.52 4.09 4.52 4.09-1.93 4.09-4.52z"/><path d="m308 251.22v-11.14h1.38v11.14z"/><path d="m321.58 251.22-6.5-8.88v8.88h-1.38v-11.14h1.41l6.41 8.7v-8.7h1.39v11.14z"/><path d="m326.52 249.65.82-1.05a4.73 4.73 0 0 0 3.5 1.58c2 0 2.63-1.07 2.63-1.92 0-2.87-6.6-1.28-6.6-5.26 0-1.83 1.64-3.08 3.82-3.08a5.2 5.2 0 0 1 4 1.55l-.83 1a4.28 4.28 0 0 0 -3.23-1.34c-1.33 0-2.28.72-2.28 1.77 0 2.5 6.59 1.07 6.59 5.23 0 1.62-1.1 3.27-4.1 3.27a5.54 5.54 0 0 1 -4.32-1.75z"/><path d="m70 271.26c-.33-.29-.77-.71-1.22-1.17a4.41 4.41 0 0 1 -3.2 1.37c-1.92 0-3.48-1-3.48-3.11 0-1.74 1.17-2.62 2.46-3.3a5.25 5.25 0 0 1 -.85-2.51 2.66 2.66 0 0 1 2.8-2.59 2.23 2.23 0 0 1 2.52 2.19c0 1.67-1.42 2.4-2.84 3.14a19.47 19.47 0 0 0 1.29 1.58c.45.54.88 1 1.32 1.49a10.35 10.35 0 0 0 1.2-2.54l1.09.47a16 16 0 0 1 -1.52 2.87c.65.69 1.35 1.35 2.17 2.11zm-2-1.94c-.63-.67-1.22-1.3-1.54-1.69a22.31 22.31 0 0 1 -1.4-1.77 2.8 2.8 0 0 0 -1.63 2.41 2.11 2.11 0 0 0 2.23 2.15 3.34 3.34 0 0 0 2.41-1.1zm-2.35-4.84c1.18-.59 2.2-1.19 2.2-2.29a1.2 1.2 0 0 0 -1.32-1.25 1.56 1.56 0 0 0 -1.55 1.62 4 4 0 0 0 .74 1.92z"/><path d="m80.75 265.7a5.57 5.57 0 0 1 5.72-5.76 5 5 0 0 1 4.23 2.2l-1.17.65a3.79 3.79 0 0 0 -3.06-1.62 4.53 4.53 0 0 0 0 9.05 3.73 3.73 0 0 0 3.06-1.62l1.18.65a5 5 0 0 1 -4.24 2.21 5.57 5.57 0 0 1 -5.72-5.76z"/><path d="m93.7 265.7a5.53 5.53 0 1 1 5.53 5.76 5.43 5.43 0 0 1 -5.53-5.76zm9.62 0c0-2.61-1.6-4.53-4.09-4.53s-4.09 1.92-4.09 4.53 1.59 4.52 4.09 4.52 4.09-1.94 4.09-4.52z"/><path d="m107.93 269.69.82-1.06a4.7 4.7 0 0 0 3.5 1.59c2 0 2.63-1.07 2.63-1.92 0-2.87-6.6-1.28-6.6-5.26 0-1.83 1.64-3.09 3.82-3.09a5.21 5.21 0 0 1 4 1.56l-.83 1a4.28 4.28 0 0 0 -3.23-1.34c-1.33 0-2.28.72-2.28 1.77 0 2.5 6.59 1.07 6.59 5.22 0 1.62-1.1 3.28-4.1 3.28a5.54 5.54 0 0 1 -4.32-1.75z"/><path d="m129.57 271.26v-9.17l-3.79 9.17h-.57l-3.77-9.17v9.17h-1.39v-11.14h2l3.46 8.38 3.47-8.38h2v11.14z"/><path d="m135.23 271.26v-11.14h7.3v1.24h-5.91v3.64h5.79v1.23h-5.79v3.77h5.91v1.24z"/><path d="m149.16 271.26v-9.9h-3.52v-1.24h8.44v1.24h-3.54v9.9z"/><path d="m157.59 271.26v-11.14h1.41v11.14z"/><path d="m162.8 265.7a5.53 5.53 0 1 1 11 0 5.86 5.86 0 0 1 -1.53 4.1l1.06 1.14-1 .83-1.09-1.15a5.53 5.53 0 0 1 -3 .84 5.43 5.43 0 0 1 -5.44-5.76zm7.65 3.95-1.59-1.72 1-.81 1.57 1.7a4.91 4.91 0 0 0 1-3.12c0-2.61-1.61-4.53-4.09-4.53s-4.09 1.92-4.09 4.53 1.58 4.52 4.09 4.52a4 4 0 0 0 2.11-.57z"/><path d="m177.7 266.93v-6.81h1.38v6.78c0 2 1.1 3.32 3.16 3.32s3.15-1.28 3.15-3.32v-6.78h1.39v6.8c0 2.77-1.52 4.54-4.54 4.54s-4.54-1.79-4.54-4.53z"/><path d="m191.05 271.26v-11.14h7.3v1.24h-5.91v3.64h5.79v1.23h-5.79v3.77h5.91v1.24z"/><path d="m201.56 269.69.82-1.06a4.68 4.68 0 0 0 3.5 1.59c2 0 2.62-1.07 2.62-1.92 0-2.87-6.59-1.28-6.59-5.26 0-1.83 1.64-3.09 3.82-3.09a5.24 5.24 0 0 1 4 1.56l-.84 1a4.25 4.25 0 0 0 -3.22-1.34c-1.33 0-2.29.72-2.29 1.77 0 2.5 6.6 1.07 6.6 5.22 0 1.62-1.1 3.28-4.11 3.28a5.54 5.54 0 0 1 -4.31-1.75z"/><path d="m219.66 271.26v-11.14h3.81a5.57 5.57 0 1 1 0 11.14zm8.08-5.56a4.07 4.07 0 0 0 -4.27-4.34h-2.42v8.64h2.42a4.09 4.09 0 0 0 4.27-4.3z"/><path d="m233 271.26v-11.14h7.29v1.24h-5.89v3.64h5.8v1.23h-5.8v3.77h5.91v1.24z"/><path d="m244.19 271.26v-11.14h4.47a3.36 3.36 0 1 1 0 6.71h-3.08v4.43zm6.53-7.78a2.06 2.06 0 0 0 -2.22-2.12h-2.92v4.24h2.92a2.07 2.07 0 0 0 2.22-2.12z"/><path d="m255.66 266.93v-6.81h1.39v6.78c0 2 1.1 3.32 3.15 3.32s3.16-1.28 3.16-3.32v-6.78h1.38v6.8c0 2.77-1.52 4.54-4.54 4.54s-4.54-1.79-4.54-4.53z"/><path d="m269 271.26v-11.14h1.39v11.14z"/><path d="m274 269.69.82-1.06a4.72 4.72 0 0 0 3.51 1.59c2 0 2.62-1.07 2.62-1.92 0-2.87-6.6-1.28-6.6-5.26 0-1.83 1.64-3.09 3.83-3.09a5.2 5.2 0 0 1 3.95 1.56l-.83 1a4.28 4.28 0 0 0 -3.22-1.34c-1.34 0-2.29.72-2.29 1.77 0 2.5 6.59 1.07 6.59 5.22 0 1.62-1.1 3.28-4.1 3.28a5.54 5.54 0 0 1 -4.28-1.75z"/><path d="m293.78 271.26v-9.26l-1.78 1.84-.84-.85 2.79-2.87h1.22v11.14z"/><path d="m299.54 270.1.71-1a2.85 2.85 0 0 0 2.38 1.13c2.26 0 3.14-2.25 3.14-4.35a3.39 3.39 0 0 0 0-.45 4 4 0 0 1 -3.13 1.73 3.37 3.37 0 0 1 -3.66-3.55 3.66 3.66 0 0 1 3.89-3.64c3.12 0 4.31 2.72 4.31 5.76s-1.41 5.74-4.53 5.74a3.89 3.89 0 0 1 -3.11-1.37zm6.16-5.82c-.11-1.39-.85-3.11-2.78-3.11a2.43 2.43 0 0 0 -2.56 2.36 2.31 2.31 0 0 0 2.57 2.4 3.33 3.33 0 0 0 2.77-1.65z"/><path d="m311.08 270.1.7-1a2.88 2.88 0 0 0 2.39 1.13c2.25 0 3.14-2.25 3.14-4.35a3.39 3.39 0 0 0 0-.45 4 4 0 0 1 -3.14 1.73 3.37 3.37 0 0 1 -3.65-3.55 3.66 3.66 0 0 1 3.89-3.64c3.12 0 4.31 2.72 4.31 5.76s-1.41 5.74-4.53 5.74a3.88 3.88 0 0 1 -3.11-1.37zm6.16-5.82c-.11-1.39-.85-3.11-2.78-3.11a2.43 2.43 0 0 0 -2.56 2.36 2.31 2.31 0 0 0 2.57 2.4 3.33 3.33 0 0 0 2.77-1.65z"/><path d="m321.7 269.62.82-.87a3.87 3.87 0 0 0 3.11 1.47c1.62 0 2.6-.8 2.6-2.09s-1.14-2-2.77-2c-.47 0-1 0-1.15 0v-1.27h1.15c1.4 0 2.59-.55 2.59-1.84s-1.14-1.9-2.49-1.9a3.79 3.79 0 0 0 -2.94 1.35l-.77-.87a4.86 4.86 0 0 1 3.81-1.72c2.14 0 3.77 1.09 3.77 3a2.7 2.7 0 0 1 -2.4 2.58 2.8 2.8 0 0 1 2.57 2.74c0 1.85-1.49 3.21-3.94 3.21a4.71 4.71 0 0 1 -3.96-1.79z"/></g></svg>