<svg xmlns="http://www.w3.org/2000/svg" viewBox="0 0 391.44 317.66"><defs><style>.cls-1{fill:#fff;}</style></defs><title>TOUAREG ( SVG )</title><g id="Calque_2" data-name="Calque 2"><path class="cls-1" d="M42.1,76.56a67.3,67.3,0,0,0-1,13.7l.33.32c4.73-.35,3.15-1.23,7.87-.32,1.88,2.63.51,4.89,1,8.15l.65.65c.55-.23,1.09-.44,1.65-.65q-1.16,1.95-2.3,3.91c.11.33.21.65.33,1,1.24-.42,2.44,0,4.26.33v.65c-1.87.72-2.78,2-4.59,2,.28,1.82,1,.09.33,2l2.29.33.33,1.3c-4.34-.2-2.37,3-1.64,5.54-.44,2.18-.87,4.35-1.31,6.52L49,123.5c2.9,8.37,2.59,18.7,1,26.4,1,1.09.75,1.44,2.3,1.3-.45,3.75-1.93,7.52-3,11.41-.78,3,2.35,10,1,14l-1.64,2.61c-1,5.15,5.69,13.3,1.64,19.23v1.63h.33c.11-.55.22-1.09.32-1.63l.66.65c-.34,1.58-.34,1.41-1.64,2,4.75,1.91,12,.36,16.08,0-.87-3.08,2.2-4.19,1.63-6.85q-1.31-3.42-2.62-6.84l1-3.91c-1.31-8.31-.81-15.95.65-25.43l-2-.31c.93-2,2.12-3,3-5.55-3.39-4.76-.48-13.77-2.62-19.23.29-2.33,1.17-2.86,2.3-4.23-.88-2-1.75-3.92-2.63-5.87,5.53-7.22-1.88-12.08,0-17.93a43.17,43.17,0,0,0,1.32-15.64c2.16-.12,2.91-.23,4.59.33l1-1.63.66-.34c-.37,1.19-.26,1-1,1.64v.33l3.93.65a74.21,74.21,0,0,1,.66-13v-.33l-9.19-1.3ZM47,80.81c.12-.23.22-.44.33-.66h.33C47.46,80.37,47.23,80.58,47,80.81Zm4.6,20.2v-.33l2-1.62C53.93,100.08,53,100.7,51.61,101Zm8.2,39.76h.33l.33.65-1.31-.32Zm-1.64-2.61.33.66H57.19l-.33-.66,1-1C58.54,138,58,137.15,58.17,138.16Zm.33,2.61c-.64.66-.11.36-1.31.65v-.32l.66-.33Zm-2.29-34.22.65.33-1.31,1-1,.66c0-.83,0-.38-.32-1.3C54.89,107,55.55,106.77,56.21,106.55Zm.32,31.61c-.57.77-.32.56-1.31,1l.66-1Zm-2,1h.33l-1,1C54.13,139.79,54.34,139.47,54.56,139.14Zm-1.31-31.29c.3.58.32.08,0,.66Zm0,44.33h.33c-.11.32-.23.64-.33,1Zm.65,14.67c-.1.32-.21.65-.32,1v-1Zm-1,16.62h.66l-1,.65Zm-1.64,1.95V183.8h.33c.22.21.43.43.66.64Zm4.27,13.69h1C55.6,199.43,56.37,199.64,55.55,199.11Zm1-1c.63.46.2,0,.66.65Zm-2.29,0c.22-.32.43-.65.65-1l-1.31.66c.07-.95-1,1.16-1.64,1.63.33-1.09.66-2.18,1-3.26,2.57-.75,4.85.22,7.55-1.63l.66,1.63ZM62.11,133l.66-1.3C63.05,132.27,62.74,132.37,62.11,133ZM73.26,88.63c.28.8.13.28-.33,1C73,89.28,73.16,89,73.26,88.63ZM337.05,197.81v-1l0,0a5.34,5.34,0,0,1-.43.5Zm-43-57.69c-2.67-2.12-.44-8.26-2-12.71,1-.27,1.31-.81,2-2.28-.8-2-1.42-3-.66-4.89-.86-.63-.82-.57-2-.33l-.32-.65c5-5.14-.81-3.17,0-7.17.87-1.41,1.75-2.82,2.62-4.24,2.72-12.46-10.58-16.13-20.67-17.59-3,1.42-7.18.32-9.51,2.28-2.93,2.47-7.18,14.72-8.2,20.21,1.87,4.82,3.56,11.07.66,15.31.1.33.21.66.33,1l4.59-2.28,1.31.65c-.79,2.44-1.25,4.26-4.27,4.57-3,5.79.62,10.37-.33,16.94a123.22,123.22,0,0,0-1.3,23.46l.32.34h1l1-1.31a7.21,7.21,0,0,0-1.64.65c1.46-2.28,1.34-3.2.65-5.87l2.63-1.95,3-.33v3.26l.66-1,.65-.32c-.42,1,0,.39-.65,1-.76,1.37-1.34,1.06-2.63.65-.41,1.32.43,1.35,0,2.93-1.08,1.91-3.79,2.26-4.59,4.57q.33,2.26.66,4.56c-1.39,2.87.54,6.39,1.31,9.13v5.21c2.41,4.85,9.08,11.33,18,9.13,3.79-.94,7.47-3.11,12.47-3.92,2.37-3.86,2.24-6.84,5.25-10.1-2.12-2.37-2.31-11.39-.33-14.67-.65-.59-.87-1.12-1.64-1.62.26-1.52.36-4.67,1-7.18l-1.31-1c.5-1.74,1.63-2.41,1-4.24-2.33-2.12-10.49-.77-14.44-.65,2.15,8.82-2.45,20.88,1.31,29.33a11.2,11.2,0,0,1-3.28,3.26,11.12,11.12,0,0,1-4.92-4.56c-2.95-6.25.27-13.65-1.64-19.57l.66-.32c.23-3.25-1.57-1.67-3-2.93h-.65c1.37-.9,1.73-.36,3.28.33.23-1.71,2.79-17.34.33-18.58l24-.33a6.81,6.81,0,0,1,0-4.89Zm-3.28,31.94.65.32c-.21.23-.43.44-.65.66Zm-3.94,26.4v.65h-.33c.12-.22.22-.43.33-.65h0c.44-.87.88-1.74,1.31-2.61C287.73,196.72,287.29,197.59,286.85,198.46Zm1-12.39c-.46.62-.31.54-1,1l.66-1Zm-1.32-6.51h.33l.33.65c-.22.1-.44.22-.66.33l-.32-.33Zm1,15.64-1,2.93-.65.33Zm-4.92-9.78,2.29.33h.66l-2,1.63,1-1.31-2,1,.65-1.3-1.31.65Zm-16.41-66.81h.66l-1.31,1C265.75,119.26,266,118.94,266.18,118.61ZM265.86,131c.11.22.22.44.32.66l-1,.33Zm-.33,31.62h.33l-.66,1Zm-2.63-50.52c-.21-.43-.44-.87-.65-1.3.11-.33.21-.65.33-1,.8.26.15-.15,1,.65.33-.65.66-1.3,1-1.95.39.6.06,2.85-.32,4.56l-2.3,1v-.66C261.12,112,261.7,111.9,262.9,112.09Zm-1.64-1.63c-.14.36.28.25-.32.65C261.05,110.9,261.15,110.68,261.26,110.46Zm-.65,2.29h.33l-.33,1Zm-1,11.73-1,.65h-.33l1.31-3.26h2C260.43,123.23,260.13,123,259.62,124.48Zm2.3-6.84,1.64-1,.66.32c-.81,1-.74.83-1.64,1l-.33.32Zm-.33,16.94h.66a3.43,3.43,0,0,1-1.64,1A4.79,4.79,0,0,1,261.59,134.58ZM260,160v-.65l.66-.33h1.64c.11.22.21.44.33.66Zm2.95-2.27-.32-.66,2-1.31h.33l-.33,2Zm1.32,20.85h.65c-.22.33-.44.65-.65,1h-1l-.33-.65Zm-2-8.48.33.33c-.12.33-.22.65-.33,1C261.62,170.37,261.93,171.32,262.25,170.1Zm4.26,22.82c-.54.44-1.09.87-1.64,1.3l.33-1.3a9.26,9.26,0,0,1-1.33.62s0,0,0,0l0,0c-.52.13-.9-.07-1.61-.95a5.63,5.63,0,0,0,2.29-1.3l2,.32Zm2.3-5.21h-2l-.33-1.31C267.7,186.86,267.85,186.58,268.81,187.71Zm14.76-92.89c.88.93-.19,5.11.33,6.85l-1.64,1.3-1,.32C282.75,100.12,281.79,98.25,283.57,94.82Zm-.33,17.27.66-1h.32Zm.33,13.36-.65.66.32-.66Zm-1.64.66c0,1-.25,1.3-2,1.63Zm-8.86-32.27,1-.65c.83.37-.53.77-1,1Zm4.59,48.88c.12-.21.22-.43.34-.64h.32Zm2-12.7-1,2.93.66.33c.44.87,0,.19,1,0-.51,1.84-2.45,3.13-4.27,3.58.32-.33.65-.65,1-1-1.12-.88-2.85-.62-3.94-.33-1.67-2.5-3.14-25.16-2-26.73-.91-.69-.07-.19-1.32-.32-.11-.33-.21-.66-.32-1,2-1.08,3.13-3.4,3.93-5.55,3.39.22,4.07,1.68,6.9,1.3-4.7,8.08,1.5,17-2,25.75v.33l5.9-2,1.32.33C284.13,130,280.23,130.48,279.64,130Zm5.24-18.25c.23-.44.44-.87.66-1.31l.33.33Zm-.32-2.94-.66.33c.72-1.44,2-1.52,3.28-2.28h2A7,7,0,0,1,284.56,108.83Zm5.9,31.61.33-.65h.33Zm0-11.4.33-1C291.06,128.86,290.91,128.34,290.46,129Zm.33-5.22-.33-.65h.66ZM95.71,101.31l-.24.22c-.07.37-.15.74-.22,1.12C96.18,101.78,96,101.89,95.71,101.31Zm239.38,62.27c1.12-.73,1.5-.77,2-2.28-2.06-1.36,1.77-8.05-1.64-9.45l2.95-2.93a9.26,9.26,0,0,1-1.31-8.15,11.57,11.57,0,0,0-1.31,1.31c-.69-.92-.59-1-1.64-1.64.5-2.12,2.34-3.82,2.95-5.53.89-2.47-1.08-4.48-1.31-6.19l2-5.55c-2.49-1.38,0-4.19-1.63-7.17-.45-.86,0-.19-1,0,.15-1.84.12-1.63-.67-2.93,5-8.46,2.11-10.69,1.32-20.86l-11.49-1c-1.6,1.58-.56,1.85-.65,4.56-2.91-.38-2.42-1.78-4.27-2.94-4.08-2.54-8.1-1.88-13.12-.65-3.18,4.2-2.35,11-3.28,15q-1.49,2.43-2.95,4.88c-1.85,2.26,1.42,2.57,2,4.89-.22,1.52-.44,3-.64,4.56,1-.87,1.67-2,4.91-2l.32.65-5.23,2c2.31,3.79-.83,10.22-.67,14a30.92,30.92,0,0,0,2.3,8.15c-1.73,2.82-1.43,7.51-.65,12.71l2.29-1c.22.21.44.43.65.65a3.55,3.55,0,0,1-1.64,1.63c.23-.33.44-.64.66-1l-1.31-.32c-.11.22-.22.43-.33.66h-.32c-2.16,2.17.48,5.59-2,5.85,1.55,6.51-.33,22.08,4.59,25.75.58.59,1.57.29,2.62,0-.31,1.64-1,1.73-2.3,1.63-.21.44-.43.87-.65,1.31,2.76,5.56,11.8,5.61,15.09.65,2.89.48,4.1,2.74,4.59,5.54-7.07,6.17-11.72,5.16-20.67,1.63-3,2.64-2,9-5.9,10.76,3,6,19.42,1.58,24.61,2.6l.65-.32v-1.31l-1.64.65c-.21-.43-.44-.87-.66-1.3h.66a13.74,13.74,0,0,0,4.92.65c6.09-1,8.32-7.16,10.5-12.06-.92-.21-.74,0-1.63.33a3.72,3.72,0,0,1,1.5-2.74l-.2-.2.63-.3a3.52,3.52,0,0,0,.36-.67c.71-1.94-1.77-3.06,1-6.85C334.21,183.52,338.81,169.68,335.09,163.58Zm.65-64.2c.3.58.32.09,0,.65Zm-30.19,18.26V117C305.86,117.56,305.87,117.06,305.55,117.64Zm2.63,91.57a3.5,3.5,0,0,1-2-1.3l2,.33Zm1-.33c-.11-.21-.21-.42-.33-.64h.66Zm.33-1h-.33v-1.3l2.63-1.63h1C311.59,206.34,311.45,207,309.49,207.91ZM333.11,95.8h.33c-.22.21-.44.43-.65.65C332.89,96.23,333,96,333.11,95.8Zm-1.63,45.3c.29.57.31.08,0,.65Zm-.33-44.65c.29.58.31.08,0,.65Zm-2.63,1.63c1.39-.18,1.08,0,2-1.3.11.54.21,1.08.33,1.63l-1,1h-1.31Zm-1.31,88.32-.66.65c.12-.21.22-.43.33-.65Zm-15.42-38.46h.33l-.66.65Zm1.31,10.75c-1.41,1.75-3.27,1.4-5.24,1,.69-1.45.47-.26,1.3-1.31Zm-6.57-16c.31.59.33.09,0,.66Zm-1.31,3.92,1-2h2.62c-.57,1.49-1.19,1.69-2.62,2.28C305.7,146.07,306.26,146.61,305.22,146.64Zm1,10.75c.72.68.63.44,1,1.63C305.81,158.49,307,158.7,306.21,157.39Zm1-4.57-1.32-.32c1.05-1,1.9-.72,2.95-1.3h1.32l-.33,1Zm.66,32.93v.65c-.12-.33-.22-.65-.34-1l1.31-1.95c.43,1-.41,1.14.66,1.3C308.68,185.75,308.76,185.6,307.86,185.75Zm16.39-36.18c-.82,3.55-1.93,9.07-1,13l-1.64.65c.57,4.65,3.86,17.81-.66,21.18-3.81-.21-4.9-1.83-6.23-4.56l-4.59,1c-.07-1.22.18-.34-.66-1.31.94-1.26,3.05-1.39,5.58-1-.56-11.06-1.23-19.11,1.31-29,0-.07,0-8.8,0-8.8v-.33l-2.3-1.95c-.46-1.44,1.72-11,2-13.36.13-1.33-1.11-2.07-1.32-2.61.33-2,.65-3.91,1-5.86l-3-3.27c-.23-.69,4.87-9.94,5.57-10.74l3.28.32,2,5.21c-1.57,1.42-1.32,2.7-3,4.24,1.15,3.85,3.86,8.62,3,13-.55,1-1.1,2-1.64,2.94.54,1.41,1.09,2.82,1.64,4.23-.55,2-1.1,3.91-1.64,5.87C322.52,140.05,324.85,147,324.25,149.57ZM313.1,122.85v-1h.66Zm11.82-29.66c-.12-.21-.23-.43-.33-.65C325.17,93,324.78,92.88,324.92,93.19Zm.32,23.79c.22-.43.43-.87.65-1.31h.66Zm.65,81.48c.23-.33.45-.65.66-1h.66C326.58,198.46,327.15,198,325.89,198.46Zm2,.32-1,.33,1-1.3Zm1.31-41.05a4.85,4.85,0,0,1,1-1C331,157,329.48,157.54,329.17,157.73Zm1.65,50.83.33-.65h.33Zm-2-61.6-.33-.65c2-1.35,3.83-1.62,5.25-2.61l.65,1L332.13,147Zm5.57,6.85-.65.65.33-.65Zm-1.63,1.62c.1.44.21.87.32,1.31C332.47,155.89,332.79,156.44,332.79,155.43Zm-.66-1.29.66-1h.32Zm2,2.6h-.33c.22-.54.44-1.09.65-1.63h.33C334.53,155.65,334.31,156.2,334.1,156.74Zm-.33-14.34c.22-.32.44-.65.65-1h.67ZM114.93,117.64c-1.59-2.54-1.5-7-1-10.43-5.92-13.73-.46-15.64-22.32-16-6.86,4.89-14.12,7.83-13.77,17.92l2-1-1,2c-.22.43-.44.86-.65,1.3h1c-.51,1.17-.12,1.18-1,1.31.82.86.34.39,1.64.32-1.86,2.76-3.47,10.85-.33,15L76.87,132c1,2,.43,5.72,2.63,6.51-2,5.22-1,11.35-1.64,17.6l1,2.93c-2.11,6.49.72,11-.65,17.27l-1.64,3.92c-.33,2.71,2.26,2.8.65,5.86.79.39.43.81,1,0l.32.33c.61,1-.45,2.32-.32,2.61,1.32,3,4,5.26,3.93,9.77l3-1,.65.65-1.64,1.3v.66c10.92,4.81,27.12,2.47,29.53-9.46l-.33-1c-1.32,1.12-2.27,1.76-2,3.91l-4.92,2.28v-1.31c9.34-2.05,8.33-22.36,7.22-30l-1.31.33c1.47-1.93,1.39-3.21,2.29-5.54l-2.95.65c.39-1.83.61-2.06,2.63-2.29-.77-.69,0-.16-1-.31.51-3.43,1.4-4.16,1-7.83-1.12-.48-.63-.31-2.3-.33.18-1.46,1.28-1.68,2-2.93,1.8-3.28.12-10.95-.33-14.34l-1.64.32-.66-.64c1.44-1.1,2.58-2.21,3.94-3.26v-1.31l-2.29-.65C113.62,123.72,114.28,120.67,114.93,117.64ZM78.51,134.25c-.11-.21-.22-.43-.32-.65C78.78,134,78.37,134,78.51,134.25Zm29.86-25.42H109l-1,1C108.16,109.49,108.26,109.16,108.37,108.83ZM107.71,130h1.65c.61.92-1.19.73-2,1C107.5,130.67,107.61,130.34,107.71,130Zm-12.46-31h.65c-.22.43-.44.86-.65,1.3-.11-.1-.22-.22-.33-.33Zm-5.58.32.65.33-.65.65Zm-.33-.65v.33L89,100c-.22-.43-.44-.87-.65-1.3ZM87.05,101h1.63c-.08,1.17-.35.37.66,1-.68,1.17-.64.93-2,.33h-.66C86.82,101.88,86.93,101.45,87.05,101Zm-.34,20.86-.65-.66C86.68,121.67,86.26,121.25,86.71,121.87Zm-1.31,0h.66c-.59.66,0,.24-1,.65C85.19,122.31,85.29,122.09,85.4,121.87Zm-.65,0,.65-1.3.33,1Zm.33-19.22h.65l-1,1Zm-1,.64v1.63l1.31-1c-.32.55-.65,1.1-1,1.63l-1-1.3Zm.66,22.82-1,.32H82.45v-.32l1.31-1h.33Zm-4.27-18.9c-.93-1.32-1.36-.94-1.64-2.29h2.63a4.28,4.28,0,0,0,1,2c.11.22.22.43.33.66C82,107.42,81.25,107.31,80.48,107.21Zm2,60,.33-1h.65C83.11,166.52,82.78,166.85,82.45,167.17Zm4.26,32.92h-.32L89,197.15h2ZM92,197.15v-1c1.48-.27,1.08.15,2.63-1h2C95.41,196.35,93.81,196.65,92,197.15Zm6.9-6.19-2,1L93,189.66c-2.82-4.5-1.53-13.27,0-18.58l-.33-1c-1.39-.8-1.23-.91-3-.32l-.66-.33c.63-2,1.71-1.32,2.62-2.6,2.82-3.93,1-14.06,1-18.91-1.91-.65-6.91.49-10.17,1,1.91-2.17,6.4-6.2,10.5-6.52-.52-3.23-.65-5.46-1.32-8.8l-1.31.65c.39-1.39.24-.83,1-1.63l-3-1c1.51-2.37,3-2.17,5.24-2.61-.37-1.77-1.19-1.54-1.64-2.61-1.47-3.58,1.12-7.26,1.32-9.77,0-.63-2.07-10.23-2.3-10.76a40.34,40.34,0,0,1,4.49-4.37c0-.18.07-.35.11-.52a1.42,1.42,0,0,0,.13.3c2-1.76,3.61-3.34,3.15-3.88.55-.72,1.09-.94,1.63-1.63,1.65.93,1.51,0,2,2.28a22.09,22.09,0,0,1-2,2.93c-.69,2-2.31,1.23-4.25.66a5.55,5.55,0,0,0,3.93,3.9c-.93,5.34-.55,13.85-.33,20.86h.65c1,.55,1.45,0,2.63-.65l1.31,1c-.86.66-4.07,2.67-5.25,4.89,1.76,6.26.67,14.3,2.3,22.16l1-.33.66.66-2.63,1.62c.23,3.38-1,5.84-.32,8.81l-.33.65c2.17-.94,3.39-2.29,5.9-2.61v.32c-2.18,1.64-4.37,3.26-6.56,4.89.73,3.53,1.27,4.68,1,8.47l3-.64c1.13-1,1.74-2.27,2.95-3.27h.33l1,.34V173c-2.62,3.05-6.52,4.07-8.53,7.83,1.32,2.42.81,5.21,0,7.82l2-1c.12.1.22.21.33.32A30.77,30.77,0,0,1,98.86,191Zm1.31-68.11.32-.65,1.32.32v.33l-1,.32C101.38,122.7,100.39,122.86,100.17,122.85Zm4.59,73.33.33-.65h1Zm3.61-8.15c-.33.66-.66,1.3-1,2l-.66.32-.33-.32c.33-.77.66-1.52,1-2.28h1Zm-2.3-10.76V177l2.63-1.63h1l.33.65Zm6.9.66c.87.28-.69.8-1,1A4.37,4.37,0,0,1,113,177.93ZM96.56,101.34c.46-.66.26-.5.33-1Zm49.54,62.24h-1.31l1.31.33Zm102.36-50.51c-1.3-6.2,5.68-16.34-4.58-20.53l-1-1L238.3,95.8a2.32,2.32,0,0,0-1.32-.33l-1-.32c.75-1.49,1.87-1.85,2.95-2.94-3.79-2.12-8.41.65-9.18,4.24-2.4-.44-3.11-2.06-3.28-4.57-2-.32-11,2.42-11.82,3.92l.33,16.62,1.64-.33.33,2a3.88,3.88,0,0,0-2.63,2.28c.64,5,.2,10.21,1,15.32H218c-.94.87-1,.8-2.3.65-2.09,2.65-.18,32-1.64,39.76.72-.47.61.19.65-1h3.94c-.71.57-.88.59-2.29.65-3,6.54-1.68,19.51-1.65,29.34,4,1.22,8.71.18,11.82-.65v-.33a2.5,2.5,0,0,1-1.65-1.31v-.32a2.85,2.85,0,0,1,2,2.61h1.31c0-2-1.06-5.26-.66-6.52.65-2,2.48-12.92,1.64-15.32-.76-2.17-2.2-14.65-2-15.65,2.43-10.31,2-19.46,2-32.26l-1-.65c-.77.65-1.53,1.31-2.3,2l-.33-.64,2.3-1.31c2.33-4.88,1-15,.33-21.51h-.33c-.77,2.1-1.66,2.7-3.61,3.59h-.33l.33-2.61c1.39-1,1.93-1.77,4.26-2q.18-1.14.33-2.28a3.33,3.33,0,0,1,1.64-2l3-1.29c3,2.1,3,4.62,2.3,8.14,1.19-.88,1.48-1.29,1.64-3.25.33-.23.66-.44,1-.66h1.31c-.38,1.55-.67,2-2,2.61l-.33.65,3.94-.33c.11.22.21.44.33.65-1.7,1.48-5.61,4.54-5.25,6.85a67.09,67.09,0,0,1-.66,11.08l2.63-1.3,1,.32v.33a5.12,5.12,0,0,1-3.28,1.63c.33,1.62.65,3.25,1,4.88h13.78l.33-.65c-1.14-4.18-.35-8-1-12.06l1.31-3.9Zm-30.83-10.75-1,.65h-.32c.16-2.9,1.14-3.75,2.29-5.54h.65C219.05,99.83,218.32,100.58,217.63,102.32Zm1.63,10.1c-.5,1.36.08.8-1.3,1.3v-.33l.65-1Zm-2.94,39.43v-1h1ZM218,149.9c.22-.33.43-.66.65-1h.33C218.63,149.76,219.2,149.28,218,149.9Zm1.3-27.7h-.32c.11-.44.22-.87.32-1.31h.34c.1.22.21.44.32.65C219.7,121.76,219.49,122,219.26,122.2Zm1,25.41c.44.22.87.44,1.32.65v.33Zm2,6.85h1.31v.33l-2.95,1.63C221.12,155.76,221.68,155.11,222.22,154.46Zm.66-6.85-.66.33-.33-1Zm-.66-2v-1l1.31.33Zm-1.31,32.27c.11-.44.21-.87.33-1.31h.33C221.34,177.06,221.12,177.49,220.91,177.93Zm1.64,17.27.66-1h1Zm1-61.92h-.32V133c.43-.33.87-.65,1.31-1h.32A3.79,3.79,0,0,1,223.53,133.28Zm2,18.25c.8-.7.36.27,1-.66l.33,1.31Zm1-2.61c.11-.22.22-.43.33-.66h.65C228.09,149.18,227.43,148.75,226.49,148.92Zm1-15.32h1l-1,1.63h-1.32C226.6,134.69,227,134.14,227.47,133.6Zm0,3.59-1.32.64c-.1-.21-.21-.43-.32-.64Zm-1.32,6.19c.34.32.67.65,1,1-.11.32-.22.65-.32,1H225.5l-.33-.65Zm.67-20.86v-.65C227.11,122.45,227.13,122,226.82,122.52Zm-.33-7.49h1c-.37,1.18-.26,1-1,1.63l-.66-1.31Zm-2.3,9.77h1.64v.33c-.77.72-.84.79-2.3,1a2.52,2.52,0,0,0-.32,2.28l-2.63,2h-1A9.6,9.6,0,0,1,224.19,124.8Zm13.12-20.86-.33.66h-.33c.23-.55.44-1.09.66-1.63C238.16,103.46,237.61,103.11,237.31,103.94Zm0-4.56H236v-1.3c.65-.44,1.31-.87,2-1.3l1.31.32Zm3.94-4.23h.66c-.22.32-.45.65-.66,1Zm-.65,3.26c.21-.44.43-.88.65-1.31h.66C241.46,97.53,241,98,240.6,98.41Zm-.66,29.33h-.33l.33-1.31,2.95-1h.65A6.71,6.71,0,0,1,239.94,127.74Zm7.54-10.1,1-1c-.14.36.29.24-.32.65l-.33.65h-.33Zm-.33,8.79.33-.32h1c-.1.32-.21.65-.32,1h-.33Zm3.28,4.89v1.3l-2.29.33v-.33l1-1.3ZM144.79,105.25v.65h0v-.67Zm6.88,93.86-1.31-.33c.62-2.51,2-3.08,3-5.21l-2.63,1a5.68,5.68,0,0,1,4.93-3.26v.32l-2,2.61a6.9,6.9,0,0,0,4.26-3.91c3.14-3.2-1.14-35.37.66-43.35,1.13-5,.73-14-1.64-14.66,5.57-10.85-1.88-25.7,2-40.09l-.33-.33c-5.33.6-9-.47-12.47.33h-1c-.18,4.44-.25,8.75-.29,13l.62-.31h.32l.33,1h-1.27c-.14,18.86.77,36.43.29,55.73,2.19-1,4.37-1.95,6.55-2.94V159c-2,2.29-4.62,2.67-4.59,6.2l3.28-1.31c-1,1.63-2.58,1.81-3.61,3.26-6,4.59.07,15.83-3.28,23.14-.21.33-.43.65-.65,1-2.8-.46-5.33-1.37-5.58-4.57h-.33l-2.62,2c2.3-3.82,2.91-6,2.3-11.42l-1.32,1c.88-2.39,1.76-4.77,2.63-7.17-.44-1.41-.88-2.82-1.31-4.23.26-1.14,2.08-7.19,1.64-8.48-2.53-7.32-2-24.79-.66-31.61-.75-1.92-.42-2.15-2.3-2.28,3.19-4.72,1.08-15.12,1-24.45-2.19,2.45-3,6.76-5.91,8.48-1.74,1.07-2.12-.34-1.31-2.28-1-.63-.87-.37-2.3-.33l1-.65c.25-.39.23-.13.34.32,3.85-2.78,9.06-8.13,8.85-13-4-.17-8.53-1.48-12.14,0,.73.46.65.26,0,1-2.77,3.11-2.14,20.25-1,21.51v.64c.94-.81.83-1.17,2.3-1.62l.32.32h.66c-.63,2.09-1.64,1.64-2,1.3-3.89,1.61-.7,17.66-2,22.49.7.23.64-.4.66.33,1.35-.06,0-.36,1.31-.33,1.24-.39.54.21,1,1l-2.63,1c.31,3.69-.46,5.5-.66,9.12l1,.66.66-.33c0-1.31,0-.39-.33-1.63l1.64.65c1,.63.55.06,1,1.31a7.52,7.52,0,0,1-3.28,2.92c-.12,5.36-.65,8.77-.33,13.7,1.77.15,2.54-.42,4.27-1l-2.3,2.28c-1.34-.15-.48.06-1.64-.65l-.66.33c1,7.32.1,15,.66,21.83l.33.33,3.61-1.3.66,1.3c-.79,1.47-1.06,1.78-2.3,2,.44,2.83.88,5.65,1.31,8.48a13.09,13.09,0,0,0,8.2,2.61l4.6-3.92c.53.89.32.71.32,1.64,2.3-.64,2.94-2.31,4.93-3.27l.65-.65c1.41,1.37.76,2.81.33,4.89,3.65,0,3.62-1.1,5.91-1.95-.11.32-.22.65-.34,1,1.41,1.39,4.65,1.2,6.9,1l.33-5.54c.6-1.53.77-2.38-.33-3.58C156.78,195.48,153.35,195.53,151.67,199.11Zm1.65-28-1.31.33c.44-1,.87-2,1.31-2.93ZM153,160.65c1,.42.39,0,1,.65C153,160.88,153.58,161.32,153,160.65Zm3,1.63-1-.32.33-1,1.31.65Zm2-11.08c-.78,3.2-3.08,3.85-3.61,6.84a2.35,2.35,0,0,1-1-1c1.47-1.64,2.68-4.8,3.28-7.17A12.38,12.38,0,0,1,157.91,151.2Zm-2.62-15.64c0-.83,0-.38.33-1.31H156Zm0-9.13h2v.33c-1.47,1.64-4.12,1.59-6.24,2.61h-.33c-.1-.22-.21-.44-.33-.65C152.38,127.59,153.13,127.47,155.29,126.43ZM145.77,101c-.11-.33-.22-.65-.32-1,1.8-1.26,2.15-.52,4.26.33.42-.82-.27-.56.65-.65v-1.3h1c.32,1.08.66,2.17,1,3.26-1.86-.72-3.42.52-4.92-2-.34.55-.67,1.09-1,1.63Zm4.59,30-1-1C150,130.47,149.92,130.33,150.36,131Zm-2.94-22.81c.1.44.21.87.32,1.31l-1,.65h-1Zm1,50.51a3,3,0,0,1-2.3,1.31c.5-1.33.43-.87,1.32-1.63h1Zm1-10.1h-1.31l.66-2,2.29.65Zm1.31-16.29c.33-.44.66-.87,1-1.31h.67ZM125.1,146.64a4.64,4.64,0,0,1,1-2.28c.11.65.22,1.3.32,1.95Zm2.62,33.24c-.91,1.08-.61,1-2,1l-.33-.66,2.63-1.3h.33C128.07,179.77,128.72,179.25,127.72,179.88Zm0-1.63v-.65h-.65l2-1.95h2A5.61,5.61,0,0,1,127.72,178.25ZM129,165.87l1.31-2c-.11.55-.22,1.09-.32,1.63Zm-3.94-28.68c.32-.87-.34-.35.66-1,.22-.76.9-.87,3.28-2.28h1.64l.33.32C130,136.7,128,137.71,125.1,137.19Zm9.19-2.61H135l-1.31,1C133.85,135.23,134.07,134.91,134.29,134.58ZM132,132.3c.1-.32.21-.65.32-1C132.59,132.12,132.44,131.6,132,132.3Zm.32,57.69.65-1h.34A2.46,2.46,0,0,1,132.32,190Zm2,11.4L134,202c-.11-.33-.22-.65-.32-1,.32-.44.65-.87,1-1.31C134.92,200.74,134.84,200.62,134.29,201.39Zm3.28-8.8.33-.65.33.65ZM156,197.81H154.3v-.33l2-.65C156.16,197.15,156.05,197.48,156,197.81Zm107.28-4.89.63.62h0C263.45,193,263.85,193.36,263.23,192.92ZM114,149.24c-.46-.61,0-.19-.66-.65Zm89.89,21.84h-.32c-1.35-17.58,2.37-36.34.32-54.75-1.12-10.16.9-16.9-5.24-22.81-3-2.92-8.77-2.83-14.44-2.94.23,1.15.31,1.09-.33,2v.65c-1.22-.37-.83-.71-1-1.31a28.57,28.57,0,0,0-6.56,2c-.68,1.65-.51,1.81-1,4.89a5.54,5.54,0,0,1-1.64-1.63c-.71-.43-1,.3-2,1.31.29,1.14-.39.42.66,1-.77,1.38-1.22,2.12-2.95,2.61,0,5.44-.06,13.92-1,18.9,5.82.94,8.85.22,13.45-2.61v1.31c-2,.37-2.05.22-3.27,1.62-.22.12-.44.22-.66.33h4.92c0-6.21-2-14,.65-18.57a6,6,0,0,1,1.32-1.3l3.61,1c2.72,1.71,2.11,15.09,2.62,16.29v1h-1c.3,2,.69,2,2.63,2.29v.32c-1.85,2.1-2.79,2.42-2.63,6.85-9.35,8.65-15.08,6.79-21.32,20.53l.66.65,2.63-2.29v2.94l-2.31,1c-2.17,5,.07,11.64-1.31,18.58l1.31.32c-1.37,6.3-1.19,12.57-.65,19.88l.65.65c1.41-.29,1.62-.34,2.31-1.3l1-.65.33,3.58c-1.29.16-1.26,0-3-.32.55,2.28,1.09,4.56,1.65,6.84,4,1.27,14.42,5.09,16.4-2.93h1.63a5.55,5.55,0,0,1,1,3.91c5.23,0,9.7.7,13.12,0-.76-1.58-.19-1-1.64-.65.59-1.43,1.54-2.51-1-3.26V195.2h1.31c-.07,1.3-.27.71.33,1.63v.65C205.76,194.29,203.89,174.8,203.84,171.08ZM171.36,118l-1.3-.65.32-.33,1,.66Zm2.63-1v1h-.33v-2.61C174.39,116.14,174.23,115.85,174,117Zm2-6.84h1.31c0,1.48,0,1.91-.66,2.61l-.65.64-.33-.64C175.74,111.88,175.85,111,176,110.14Zm.33,6.84c-.55-.87-1.1-1.74-1.64-2.61l1.31,1c1.33-.4.69.14,1-1,.66.77,1.32,1.52,2,2.29C177.65,116.31,177.11,116.2,176.29,117Zm2.3-19.88c.1-.43.21-.87.32-1.3l.66.65Zm5.57-1.3-1.31,1.3V95.47h1.31Zm17.39,75.28.33-1.3c1,.53.78.29,1.31,1.3Zm1,2.93c-.21.12-.43.22-.65.33v-1Zm-.32-62.57h.32c-.39.84.33.52-1,1Zm-.66,2.93h.33c.47.68.75.42.33,1.3-.63,1-.06.55-1.32,1l-.32-.66Zm-3.94,14.35c1.64-.88,3.28-1.74,4.92-2.61.63.43-2.76,4.48-4.26,5.21h-1C197.69,129,198.77,129.61,197.61,128.72Zm2.3,18.24c.52.65.44.45.66,1.63l-2,.33Zm-.66-.65.66-1h.33Zm-1-.65-1.64,1c.21-.33.43-.65.65-1Zm-2.62-33.89h1v.32l-.33,1h-1C195.42,112.63,195.53,112.2,195.65,111.77Zm.32,6.51v.33l-1,.65c.11-.65.21-1.3.33-2C195.53,117.64,195.75,118,196,118.28Zm-1.31-4.89H195l-.66.66Zm-1-2.6.66-1.63c.67.64.36.12.66,1.3Zm-1.31-2.28,2.3-2H195v2Zm1,26.72V132l3-2c.25,1.27-1.34,2.78-2.3,3.91.28,1.14-.39.43.66,1l-2.63,2h-1C191.58,135.41,191.81,135.57,193.35,135.23Zm-.66,6.52-1,.65c.11-.21.21-.43.32-.65Zm-2.3-1c1,.57.18.1,0,1.31l-.65.32C190,141.86,190.17,141.31,190.39,140.77Zm-16.73,6.52h1v.32l-1,1Zm-.66,2.28,2-1h2l-1.31,2.94-1,.32h-1.32L173,149.9Zm4.93,1.3c-.23.22-.44.44-.66.66l-.33-2.29Zm-7.22,7.82c.11.12.22.22.33.33l-1,1Zm.65,28h-1.3l1-1.3h.32Zm1.31-15.31-1,.65-.33-.33c.33-.54.67-1.09,1-1.63C173.47,170.55,172.69,170.37,172.67,171.41ZM172,155.76c-.56-.92,0-1.17.32-2.94H174l.66,1-1.32.65Zm1.63,29.66,1.31.33C174,186,174.41,186.1,173.66,185.42Zm1.31-20.2c-.11.32-.22.65-.32,1l-.66-1.3h1Zm1.64,17.6-1,.65h-.33l.33-2h1Zm-.32-18.91a5.78,5.78,0,0,1,1.64-1.63C178.61,162.79,177.18,163.66,176.29,163.91Zm3.6,31.62c.12-.33.22-.66.33-1C180.27,195.4,180.58,194.78,179.89,195.53Zm.33,2.93v-.65C180.52,198.39,180.54,197.89,180.22,198.46Zm1-10.43h-1.32v-.65l.66-.33h.66Zm-.33-43.67-.33.65c-2.46-.89-2.56.45-5.25,1.3.08-1.78.06-1.09-1-2.28l.33-1c2.53.15,4.21.24,5.57-1.3l1,.65Zm1.64-7.5c.56-1.55,1.31-1.59,2.3-2.61,1,.55,1,.21,1.64,1l-3.28,4.56h-1.32Zm2.62,7.82-1,.65.33-1.63h.33C184.93,144,185,144.36,185.14,144.68Zm-2,50.52h.65l.33.65C183,195.94,183.79,196.21,183.18,195.2Zm8.2-14.66c-1,2.27-1.31,4.11-1.32,8.47l-1.63,2.28-4.6-1c-2-3.44-2.09-35.7-1.31-39.11.83-3.62,2.82-4.6,4.59-7.5l1.32.33c2.62,1.73,1.74,9.56,1.63,14.34.86-.83.95.1.66-1.63l1.64,1.95c-1.24,1.15-2.07,1.3-2.3,3.59h3a3.88,3.88,0,0,1-3,1.3v14.35C190.36,178.48,192.14,178.81,191.38,180.54Zm2-1.63-.66.32.33-1.3C193.79,178.61,193.17,177.89,193.35,178.91Zm.65,6.18h-2c.44-.65.88-1.29,1.32-2l1.31.66Zm0-23.46.33-1,.33.33Zm4.27,14H196l-.32-.33c.1-.54.21-1.09.32-1.62l3-1.64h.65A6.52,6.52,0,0,0,198.27,175.65Zm-3.61-16.3.33-.66h1.31v1Zm5.58,7.17c-.59.94-.64.82-1.64,1.3h-.33v-.32l1.64-2.28C200.39,165.89,200.66,165.63,200.24,166.52Zm-2.63-2.94.33-1.3,1,.65Zm-4.92-4.23c.67-1.7.81-2.13.33-2.61,2.47-2.3,6.54-3.41,8.86-5.87h1c-.12,2.3-.85,2.43-2.29,3.27V152.5C197.89,154.82,196.11,158.39,192.69,159.35Zm9.84,20.21c-1.48-1.19-1.41-2.15-.65-3.91l1.31.64Z"/><path class="cls-1" d="M348.87,77.67a6.76,6.76,0,0,1,2,4.85,6.63,6.63,0,0,1-2,4.89,7.05,7.05,0,0,1-4.92,2,6.94,6.94,0,0,1-4.95-2.09,6.84,6.84,0,0,1-1-8.42,6.75,6.75,0,0,1,5.92-3.33A6.91,6.91,0,0,1,348.87,77.67Zm-9,.7a5.81,5.81,0,0,0-1.77,4.13,5.62,5.62,0,0,0,1.67,4,5.81,5.81,0,0,0,4.12,1.75,6,6,0,0,0,4.12-1.7,5.51,5.51,0,0,0,1.7-4,5.77,5.77,0,0,0-5.8-5.89A5.51,5.51,0,0,0,339.85,78.37Zm4.17.17c2.21,0,3.3.74,3.3,2.21a2.07,2.07,0,0,1-1.69,2l1.72,3.43h-2.08l-1.48-3.15h-.92v3.15H341V78.54ZM342.87,82h.92c1.07,0,1.59-.32,1.59-1.08s-.55-1.15-1.69-1.15h-.82Z"/><path class="cls-1" d="M28.61,241.55V230.32h4.51a3.39,3.39,0,1,1,0,6.77H30v4.46Zm6.58-7.85A2.08,2.08,0,0,0,33,231.57H30v4.27h3A2.09,2.09,0,0,0,35.19,233.7Z"/><path class="cls-1" d="M46.05,241.55l-1-2.49H39.47l-1,2.49h-1.6l4.51-11.23h1.74l4.52,11.23Zm-3.79-9.78-2.39,6h4.76Z"/><path class="cls-1" d="M56.45,241.55l-2.86-4.46H51.35v4.46H50V230.32h4.51A3.27,3.27,0,0,1,58,233.7,3.11,3.11,0,0,1,55.07,237l3,4.58Zm.08-7.85a2.07,2.07,0,0,0-2.23-2.13H51.35v4.29H54.3A2.09,2.09,0,0,0,56.53,233.7Z"/><path class="cls-1" d="M61,241.55V230.32h7.36v1.25h-6v3.62h5.84v1.24H62.43v5.12Z"/><path class="cls-1" d="M71.13,237.19v-6.87h1.4v6.83c0,2.06,1.11,3.35,3.18,3.35s3.18-1.29,3.18-3.35v-6.83h1.4v6.85c0,2.79-1.54,4.58-4.58,4.58S71.13,240,71.13,237.19Z"/><path class="cls-1" d="M93.35,241.55v-9.24l-3.82,9.24H89l-3.81-9.24v9.24H83.76V230.32h2l3.48,8.45,3.5-8.45h2v11.23Z"/><path class="cls-1" d="M97.54,240l.83-1.06a4.72,4.72,0,0,0,3.53,1.6c2,0,2.65-1.07,2.65-1.93,0-2.9-6.65-1.3-6.65-5.3,0-1.85,1.65-3.12,3.85-3.12a5.25,5.25,0,0,1,4,1.57l-.84,1a4.31,4.31,0,0,0-3.25-1.34c-1.35,0-2.3.72-2.3,1.78,0,2.53,6.64,1.08,6.64,5.27,0,1.63-1.11,3.3-4.14,3.3A5.55,5.55,0,0,1,97.54,240Z"/><path class="cls-1" d="M121.36,241.55c-.33-.29-.77-.71-1.23-1.18a4.41,4.41,0,0,1-3.23,1.38c-1.93,0-3.5-1.05-3.5-3.13,0-1.75,1.18-2.64,2.48-3.33a5.24,5.24,0,0,1-.86-2.53,2.67,2.67,0,0,1,2.83-2.61,2.24,2.24,0,0,1,2.54,2.21c0,1.68-1.43,2.42-2.86,3.16.45.62.92,1.18,1.29,1.6s.89,1,1.33,1.5a10.7,10.7,0,0,0,1.21-2.56l1.1.47a16.33,16.33,0,0,1-1.53,2.9c.65.69,1.36,1.36,2.18,2.12Zm-2-2c-.64-.68-1.23-1.32-1.55-1.71a22.62,22.62,0,0,1-1.42-1.78,2.81,2.81,0,0,0-1.64,2.42A2.12,2.12,0,0,0,117,240.7,3.39,3.39,0,0,0,119.38,239.6ZM117,234.71c1.2-.59,2.23-1.19,2.23-2.3a1.21,1.21,0,0,0-1.33-1.26,1.57,1.57,0,0,0-1.57,1.63A4.15,4.15,0,0,0,117,234.71Z"/><path class="cls-1" d="M130.47,235.94a5.61,5.61,0,0,1,5.77-5.8,5,5,0,0,1,4.26,2.22l-1.17.65a3.81,3.81,0,0,0-3.09-1.63,4.57,4.57,0,0,0,0,9.12,3.76,3.76,0,0,0,3.09-1.63l1.19.66a5.08,5.08,0,0,1-4.28,2.22A5.62,5.62,0,0,1,130.47,235.94Z"/><path class="cls-1" d="M142.69,235.94a5.58,5.58,0,1,1,5.58,5.81A5.47,5.47,0,0,1,142.69,235.94Zm9.7,0c0-2.62-1.62-4.56-4.12-4.56s-4.13,1.94-4.13,4.56,1.6,4.56,4.13,4.56S152.39,238.55,152.39,235.94Z"/><path class="cls-1" d="M156.2,240l.82-1.06a4.72,4.72,0,0,0,3.53,1.6c2,0,2.65-1.07,2.65-1.93,0-2.9-6.65-1.3-6.65-5.3,0-1.85,1.65-3.12,3.85-3.12a5.25,5.25,0,0,1,4,1.57l-.84,1a4.31,4.31,0,0,0-3.25-1.34c-1.35,0-2.3.72-2.3,1.78,0,2.53,6.64,1.08,6.64,5.27,0,1.63-1.11,3.3-4.14,3.3A5.52,5.52,0,0,1,156.2,240Z"/><path class="cls-1" d="M177.17,241.55v-9.24l-3.82,9.24h-.57L169,232.31v9.24h-1.39V230.32h2l3.48,8.45,3.5-8.45h2v11.23Z"/><path class="cls-1" d="M182,241.55V230.32h7.35v1.25h-6v3.62h5.84v1.24h-5.84v3.87h6v1.25Z"/><path class="cls-1" d="M195.23,241.55v-10h-3.55v-1.25h8.52v1.25h-3.57v10Z"/><path class="cls-1" d="M202.89,241.55V230.32h1.4v11.23Z"/><path class="cls-1" d="M207.3,235.94a5.58,5.58,0,1,1,11.15,0,5.93,5.93,0,0,1-1.55,4.14l1.08,1.15-1,.84-1.09-1.16a5.57,5.57,0,0,1-3,.84A5.48,5.48,0,0,1,207.3,235.94Zm7.71,4-1.6-1.73,1-.83,1.58,1.72a4.92,4.92,0,0,0,1-3.15c0-2.62-1.62-4.56-4.12-4.56s-4.13,1.94-4.13,4.56,1.6,4.56,4.13,4.56A4,4,0,0,0,215,239.93Z"/><path class="cls-1" d="M221.48,237.19v-6.87h1.4v6.83c0,2.06,1.11,3.35,3.18,3.35s3.18-1.29,3.18-3.35v-6.83h1.4v6.85c0,2.79-1.54,4.58-4.58,4.58S221.48,240,221.48,237.19Z"/><path class="cls-1" d="M234.1,241.55V230.32h7.36v1.25h-6v3.62h5.84v1.24H235.5v3.87h6v1.25Z"/><path class="cls-1" d="M243.85,240l.83-1.06a4.72,4.72,0,0,0,3.53,1.6c2,0,2.64-1.07,2.64-1.93,0-2.9-6.64-1.3-6.64-5.3,0-1.85,1.65-3.12,3.85-3.12a5.25,5.25,0,0,1,4,1.57l-.84,1A4.31,4.31,0,0,0,248,231.4c-1.35,0-2.31.72-2.31,1.78,0,2.53,6.65,1.08,6.65,5.27,0,1.63-1.11,3.3-4.14,3.3A5.55,5.55,0,0,1,243.85,240Z"/><path class="cls-1" d="M260.42,241.55V230.32h3.83a5.62,5.62,0,1,1,0,11.23Zm8.14-5.61a4.1,4.1,0,0,0-4.31-4.37h-2.44v8.73h2.44A4.13,4.13,0,0,0,268.56,235.94Z"/><path class="cls-1" d="M273,241.55V230.32h7.36v1.25h-6v3.62h5.84v1.24h-5.84v3.87h6v1.25Z"/><path class="cls-1" d="M283.46,241.55V230.32H288a3.39,3.39,0,1,1,0,6.77h-3.11v4.46ZM290,233.7a2.08,2.08,0,0,0-2.23-2.13h-2.95v4.27h2.95A2.08,2.08,0,0,0,290,233.7Z"/><path class="cls-1" d="M294.19,237.19v-6.87h1.39v6.83c0,2.06,1.11,3.35,3.18,3.35s3.19-1.29,3.19-3.35v-6.83h1.39v6.85c0,2.79-1.53,4.58-4.58,4.58S294.19,240,294.19,237.19Z"/><path class="cls-1" d="M306.81,241.55V230.32h1.4v11.23Z"/><path class="cls-1" d="M311,240l.83-1.06a4.72,4.72,0,0,0,3.53,1.6c2,0,2.65-1.07,2.65-1.93,0-2.9-6.65-1.3-6.65-5.3,0-1.85,1.65-3.12,3.85-3.12a5.25,5.25,0,0,1,4,1.57l-.84,1a4.31,4.31,0,0,0-3.25-1.34c-1.35,0-2.3.72-2.3,1.78,0,2.53,6.64,1.08,6.64,5.27,0,1.63-1.11,3.3-4.14,3.3A5.55,5.55,0,0,1,311,240Z"/><path class="cls-1" d="M329.25,241.55v-9.38l-1.8,1.9-.84-.85,2.81-2.9h1.23v11.23Z"/><path class="cls-1" d="M334.22,240.39l.71-1a2.87,2.87,0,0,0,2.4,1.15c2.28,0,3.17-2.28,3.17-4.4a3.39,3.39,0,0,0,0-.45,4,4,0,0,1-3.16,1.75,3.41,3.41,0,0,1-3.69-3.59,3.68,3.68,0,0,1,3.92-3.66c3.15,0,4.34,2.74,4.34,5.8s-1.41,5.79-4.56,5.79A3.92,3.92,0,0,1,334.22,240.39Zm6.21-5.88c-.12-1.4-.86-3.13-2.81-3.13a2.45,2.45,0,0,0-2.58,2.37,2.33,2.33,0,0,0,2.6,2.43A3.34,3.34,0,0,0,340.43,234.51Z"/><path class="cls-1" d="M345,240.39l.71-1a2.87,2.87,0,0,0,2.4,1.15c2.28,0,3.17-2.28,3.17-4.4a3.39,3.39,0,0,0,0-.45,4,4,0,0,1-3.16,1.75,3.41,3.41,0,0,1-3.69-3.59,3.68,3.68,0,0,1,3.92-3.66c3.15,0,4.35,2.74,4.35,5.8s-1.42,5.79-4.57,5.79A3.92,3.92,0,0,1,345,240.39Zm6.21-5.88c-.12-1.4-.86-3.13-2.81-3.13a2.45,2.45,0,0,0-2.58,2.37,2.33,2.33,0,0,0,2.6,2.43A3.34,3.34,0,0,0,351.22,234.51Z"/><path class="cls-1" d="M354.87,239.9l.83-.88a3.89,3.89,0,0,0,3.13,1.48c1.63,0,2.62-.8,2.62-2.1s-1.14-2-2.79-2c-.47,0-1,0-1.16,0v-1.28c.19,0,.71,0,1.16,0,1.42,0,2.61-.56,2.61-1.85s-1.14-1.92-2.51-1.92a3.79,3.79,0,0,0-3,1.36l-.77-.87a4.83,4.83,0,0,1,3.83-1.74c2.16,0,3.81,1.1,3.81,3a2.74,2.74,0,0,1-2.43,2.61,2.82,2.82,0,0,1,2.6,2.76c0,1.87-1.5,3.23-4,3.23A4.74,4.74,0,0,1,354.87,239.9Z"/></g></svg>